<svg version="1.1" xmlns="http://www.w3.org/2000/svg" viewBox="0 0 328.05919102502514 240.92554354112997" width="984.1775730750754" height="722.7766306233899">
  <!-- svg-source:excalidraw -->
  
  <defs>
    <style class="style-fonts">
      @font-face {
        font-family: "Virgil";
        src: url("https://excalidraw.com/Virgil.woff2");
      }
      @font-face {
        font-family: "Cascadia";
        src: url("https://excalidraw.com/Cascadia.woff2");
      }
    </style>
    
  </defs>
  <rect x="0" y="0" width="328.05919102502514" height="240.92554354112997" fill="#ffffff"></rect><g stroke-linecap="round" transform="translate(119.34233655117384 40.75819036347423) rotate(309.6436050187282 25.70051070020702 96.6240269005126)"><path d="M-1.52 0.48 L52.7 -1.08 L50.69 194.22 L-0.06 192.32" stroke="none" stroke-width="0" fill="#a5d8ff"></path><path d="M1.21 -0.79 C11.71 -0.14, 25.29 0.71, 52.46 0.86 M-0.01 0.16 C10.38 -0.13, 22.8 1.13, 51.29 0.41 M53.13 1.63 C53.39 61.49, 51.9 126.78, 52.79 191.49 M52.14 0.11 C51.12 56.93, 52.24 114.4, 50.7 193.87 M50.16 192.89 C33.84 191.43, 13.28 193.22, 0.67 193.58 M51.62 194.2 C31.75 193.66, 12.53 193.74, 0.17 193.63 M1 194.3 C1.37 129.37, -0.75 63.78, 1.86 -1.71 M0.99 192.35 C0.9 145.62, -0.12 97.46, 0.26 -0.18" stroke="#1971c2" stroke-width="2" fill="none"></path></g><g stroke-linecap="round" transform="translate(159.25614714797996 12.248919875954414) rotate(48.93617089606788 27.09479444339462 44.234530120484266)"><path d="M27.83 0.31 L53.46 44.07 L28.09 90.24 L-1.7 44.07" stroke="none" stroke-width="0" fill="#a5d8ff" fill-rule="evenodd"></path><path d="M29.77 -0.68 C36.49 12.19, 42.58 25.83, 54.22 43.65 M27.64 0.14 C35.13 10.2, 40.34 20.72, 55.12 44.92 M52.27 45.04 C45.89 58.04, 39.45 69.57, 27.77 86.78 M54.91 44.66 C45.75 58.41, 35.58 73.71, 27.27 88.83 M27.15 86.73 C18.87 73.15, 10.85 62.9, -1.57 43.58 M27.41 89.15 C19.25 73.83, 10.39 59.38, -0.29 45.34 M0.04 44.17 C5.65 34.59, 10.93 25.91, 26.86 -1.46 M-0.29 45.29 C11.43 28.73, 21.21 10.14, 28.71 -0.61" stroke="#1971c2" stroke-width="2" fill="none"></path></g><g stroke-linecap="round" transform="translate(47.250233690923324 34.83144438121258) rotate(127.6813277528556 27.366853738539646 44.234530120484266)"><path d="M28.07 1.38 L55.19 46.15 L27.94 89.71 L1.63 43.68" stroke="none" stroke-width="0" fill="#a5d8ff" fill-rule="evenodd"></path><path d="M28.11 -1.51 C33.25 11.85, 40.87 20.68, 54.45 43.87 M27.43 0.83 C32.71 8.09, 38.97 18.39, 53.93 45.12 M53.6 43.43 C47.27 58.37, 40.05 69.81, 28.82 89.46 M54.31 44.6 C44.31 61.38, 33.49 78.97, 28.46 89.47 M27.06 86.95 C21.76 78.58, 16.01 71.42, -1 45.38 M27.49 87.66 C20.2 78.05, 14.28 67.08, 0.49 45.46 M-1.52 45.61 C10.23 27.98, 23.08 10.61, 26.82 1.87 M-0.92 44.04 C7.58 32.32, 14.48 20.83, 28.16 -0.11" stroke="#1971c2" stroke-width="2" fill="none"></path></g><g stroke-linecap="round" transform="translate(93.52665506222763 30.263919679553055) rotate(42.991845479959814 25.70051070020702 96.6240269005126)"><path d="M-0.83 -1.65 L52.64 -0.39 L52.79 193.38 L-0.17 192.91" stroke="none" stroke-width="0" fill="#a5d8ff"></path><path d="M-0.16 1.92 C14.48 1.11, 26.29 -1, 50.34 -0.98 M-0.58 0.36 C18.26 0.46, 35.75 0.86, 50.58 -0.74 M52.43 1.39 C50.54 60.05, 51.73 117.21, 49.41 192.11 M51.07 0.45 C50.86 58.79, 50.13 116.49, 51.77 192.87 M51.91 194.25 C33.52 192.8, 15.31 194.73, 1.87 191.3 M50.77 193.9 C36.45 193.26, 20.96 192.62, 0.79 193.6 M-0.74 193.42 C0.26 149.31, -0.51 106.5, -0.18 -1.68 M-0.37 193.85 C0.88 143.36, 0.15 93.5, -0.72 -0.19" stroke="#1971c2" stroke-width="2" fill="none"></path></g><g stroke-linecap="round" transform="translate(188.4208571185826 40.642944159616945) rotate(0 7.413607768110921 8.649209062796075)"><path d="M3.63 1.6 C5 0.6, 8.41 -0.79, 9.96 -0.51 C11.51 -0.22, 12.09 1.86, 12.94 3.33 C13.78 4.8, 15.11 6.47, 15.01 8.31 C14.9 10.16, 13.28 12.81, 12.29 14.41 C11.3 16.01, 10.36 17.65, 9.05 17.93 C7.74 18.2, 6.01 17.08, 4.44 16.06 C2.87 15.05, 0.39 13.65, -0.34 11.84 C-1.07 10.04, -0.82 7.16, 0.05 5.21 C0.93 3.25, 4.13 0.96, 4.89 0.12 C5.65 -0.71, 4.78 -0.01, 4.63 0.2 M8.58 0.47 C9.67 0.81, 10.51 2.43, 11.72 3.91 C12.93 5.39, 15.82 7.65, 15.84 9.34 C15.87 11.02, 13.19 12.65, 11.87 13.99 C10.56 15.34, 9.24 16.93, 7.93 17.39 C6.63 17.85, 5.25 17.58, 4.04 16.77 C2.83 15.96, 1.4 14.44, 0.67 12.53 C-0.05 10.61, -0.88 6.93, -0.3 5.28 C0.28 3.63, 2.73 3.49, 4.13 2.63 C5.53 1.76, 7.36 0.49, 8.11 0.09 C8.85 -0.3, 8.36 0.22, 8.59 0.24" stroke="none" stroke-width="0" fill="#ffffff"></path><path d="M8.99 -0.55 C10.38 -0.11, 11.99 2.18, 13.06 3.82 C14.12 5.45, 15.41 7.31, 15.38 9.23 C15.35 11.15, 14.09 13.83, 12.87 15.32 C11.65 16.8, 9.73 18.07, 8.04 18.14 C6.35 18.22, 4.03 17.1, 2.73 15.75 C1.43 14.41, 0.63 11.88, 0.24 10.06 C-0.15 8.25, -0.24 6.53, 0.4 4.89 C1.05 3.24, 2.54 1.13, 4.13 0.21 C5.71 -0.7, 8.82 -0.58, 9.9 -0.62 C10.98 -0.66, 10.84 -0.42, 10.62 0 M9.31 -0.22 C10.43 0.26, 11.77 2.15, 12.74 3.9 C13.71 5.64, 15.31 8.28, 15.12 10.23 C14.92 12.18, 13.09 14.65, 11.58 15.6 C10.06 16.55, 7.35 15.76, 6.01 15.93 C4.66 16.09, 4.37 17.48, 3.51 16.6 C2.65 15.72, 1.03 12.49, 0.86 10.64 C0.69 8.79, 1.72 7.34, 2.49 5.51 C3.25 3.68, 4.09 0.66, 5.44 -0.32 C6.79 -1.3, 9.65 -0.77, 10.6 -0.37 C11.55 0.03, 11.2 1.9, 11.14 2.06" stroke="#1971c2" stroke-width="2" fill="none"></path></g><g transform="translate(200.2825993815129 68.81465744919421) rotate(0 -0.4942329763622979 1.235601294685182)" stroke="none"><path d="M-1.96 1.97 L0.31 -0.12 L-1.13 2.05 L-1.52 2.25 L0.62 0.2 L-1.24 3.71 L0.13 3.37 L-3.38 3.75 L-2.48 3.61 L-1.62 0.04 L-1.2 3.18 L0.72 1.38 L-1.21 2.94 L1.65 0.73 L2.21 0.43 L0.52 -0.79 L0.06 -1.63 L1.05 -1.4" stroke="none" stroke-width="0" fill="#a5d8ff" fill-rule="evenodd"></path><path fill="#1971c2" d="M 4.09,2.45 Q 4.09,2.45 3.71,3.23 3.34,4.02 3.21,4.17 3.08,4.31 2.71,4.79 2.34,5.27 1.86,5.64 1.39,6.02 0.84,6.27 0.29,6.52 -0.30,6.63 -0.89,6.74 -1.49,6.70 -2.10,6.67 -2.67,6.49 -3.25,6.31 -3.77,6.00 -4.29,5.69 -4.72,5.27 -5.15,4.84 -5.46,4.32 -5.77,3.81 -5.96,3.23 -6.14,2.66 -6.18,2.05 -6.21,1.45 -6.11,0.85 -6.00,0.26 -5.75,-0.28 -5.51,-0.83 -4.66,-2.09 -3.80,-3.34 -3.35,-3.75 -2.89,-4.15 -2.35,-4.44 -1.81,-4.73 -1.22,-4.87 -0.63,-5.02 -0.02,-5.03 0.58,-5.03 1.18,-4.88 1.77,-4.74 2.31,-4.46 2.86,-4.18 3.31,-3.78 3.77,-3.37 4.12,-2.87 4.47,-2.37 4.69,-1.80 4.91,-1.23 4.99,-0.62 5.06,-0.02 4.99,0.58 4.92,1.19 4.71,1.76 4.49,2.33 4.15,2.83 3.80,3.34 0.74,3.92 -2.30,4.51 -2.96,4.02 -3.62,3.53 -4.09,2.86 -4.56,2.19 -4.79,1.40 -5.02,0.62 -4.99,-0.19 -4.96,-1.01 -4.67,-1.78 -4.37,-2.55 -3.85,-3.18 -3.33,-3.81 -2.63,-4.24 -1.94,-4.68 -1.14,-4.86 -0.34,-5.05 0.46,-4.97 1.28,-4.90 2.03,-4.56 2.78,-4.23 3.38,-3.67 3.99,-3.12 4.38,-2.40 4.77,-1.68 4.92,-0.87 5.06,-0.07 4.94,0.73 4.82,1.54 4.45,2.27 4.07,3.00 3.49,3.58 2.90,4.15 2.16,4.50 1.42,4.86 0.61,4.96 -0.20,5.06 -1.00,4.89 -1.80,4.73 -2.51,4.32 -3.22,3.90 -3.76,3.29 -4.30,2.67 -4.61,1.91 -4.93,1.15 -4.98,0.34 -5.04,-0.47 -4.83,-1.26 -4.62,-2.06 -4.17,-2.74 -3.72,-3.43 -3.08,-3.93 -2.43,-4.44 -1.66,-4.71 -0.89,-4.98 -0.07,-5.00 0.74,-5.01 -1.52,-4.17 -3.80,-3.34 -3.35,-3.75 -2.89,-4.15 -2.35,-4.44 -1.81,-4.72 -1.22,-4.87 -0.63,-5.02 -0.02,-5.03 0.58,-5.03 1.18,-4.88 1.77,-4.74 2.31,-4.46 2.85,-4.18 3.31,-3.78 3.77,-3.37 4.12,-2.87 4.47,-2.37 4.69,-1.80 4.91,-1.23 4.99,-0.62 5.06,-0.02 4.99,0.58 4.92,1.19 4.71,1.76 4.49,2.33 4.15,2.83 3.80,3.34 3.44,3.83 3.08,4.31 2.71,4.79 2.34,5.27 1.86,5.64 1.39,6.02 0.84,6.27 0.29,6.52 -0.30,6.63 -0.89,6.74 -1.49,6.70 -2.10,6.67 -2.67,6.49 -3.25,6.31 -3.77,6.00 -4.29,5.69 -4.72,5.27 -5.15,4.84 -5.46,4.32 -5.77,3.81 -5.96,3.23 -6.14,2.66 -6.18,2.05 -6.21,1.45 -6.11,0.85 -6.00,0.26 -5.75,-0.28 -5.51,-0.83 -5.28,-1.00 -5.05,-1.18 -4.57,-1.81 -4.09,-2.45 -3.73,-2.90 -3.38,-3.36 -2.93,-3.71 -2.48,-4.07 -1.95,-4.31 -1.43,-4.55 -0.86,-4.65 -0.30,-4.76 0.27,-4.72 0.84,-4.69 1.39,-4.52 1.94,-4.35 2.43,-4.06 2.93,-3.76 3.33,-3.36 3.74,-2.95 4.04,-2.46 4.34,-1.97 4.51,-1.42 4.69,-0.87 4.72,-0.30 4.76,0.27 4.66,0.83 4.56,1.40 4.32,1.93 4.09,2.45 4.09,2.45 L 4.09,2.45 Z"></path></g><g transform="translate(176.55903944053432 45.58534933835756) rotate(0 -3.4596873958743117 3.953929799126314)" stroke="none"><path fill="#1971c2" d="M 3.73,3.31 Q 3.73,3.31 2.66,4.65 1.59,5.99 -0.13,5.36 -1.87,4.72 -1.48,5.53 -1.09,6.34 -0.98,7.23 -0.87,8.12 -1.05,9.00 -1.23,9.88 -1.68,10.66 -2.13,11.44 -2.81,12.03 -3.49,12.62 -4.32,12.97 -5.15,13.31 -6.04,13.37 -6.94,13.44 -7.81,13.21 -8.68,12.98 -9.43,12.49 -10.18,11.99 -10.74,11.29 -11.29,10.58 -11.59,9.73 -11.89,8.88 -11.90,7.98 -11.92,7.08 -11.64,6.23 -11.37,5.37 -10.83,4.65 -10.30,3.92 -9.56,3.41 -8.83,2.89 -7.96,2.64 -7.10,2.39 -6.20,2.42 -5.30,2.46 -4.46,2.78 -3.62,3.10 -2.93,3.67 -2.24,4.24 -1.76,5.01 -1.29,5.77 -1.08,6.65 -0.88,7.52 -0.96,8.42 -1.04,9.31 -1.41,10.13 -1.78,10.96 -2.38,11.62 -2.99,12.28 -3.78,12.71 -4.57,13.14 -5.46,13.30 -6.34,13.46 -7.23,13.33 -8.12,13.19 -8.92,12.78 -9.72,12.38 -10.35,11.73 -10.98,11.09 -10.97,11.09 -10.97,11.09 -8.56,5.10 -6.14,-0.88 -4.93,-2.10 -3.73,-3.31 -3.28,-3.71 -2.82,-4.11 -2.29,-4.39 -1.76,-4.67 -1.17,-4.81 -0.59,-4.95 0.00,-4.95 0.61,-4.95 1.19,-4.81 1.77,-4.66 2.31,-4.38 2.84,-4.10 3.29,-3.70 3.74,-3.30 4.08,-2.80 4.42,-2.31 4.63,-1.74 4.84,-1.18 4.92,-0.58 4.99,0.00 4.91,0.60 4.84,1.20 4.63,1.76 4.41,2.32 4.07,2.82 3.73,3.31 3.73,3.31 L 3.73,3.31 Z"></path></g><g transform="translate(169.6396646487857 56.95287747870498) rotate(0 1.9769884667875885 -4.201036860417702)" stroke="none"><path d="M-0.54 -1.81 L1.27 0.89 L-0.46 0.73 L1.81 -2.23 L-0.18 -3.17 L1.64 -4.73 L3.41 -4.7 L1.96 -2.18 L0.57 -3.75 L1.6 -7.23 L3.21 -6.81 L3.56 -7.26 L6.44 -7.09 L2.51 -8.77 L6.47 -8.91 L4.24 -9.93 L7.18 -9.76 L3.74 -9.54 L7.13 -10.79 L5.1 -9.09 L6.01 -12.3 L8.62 -12.2 L8.68 -10.74 L6.23 -13.66 L5.67 -10.24 L8.53 -9.93 L6.13 -10.07 L7.77 -10.59 L7.9 -7.16 L5.34 -6.4 L3.95 -5.08 L3.31 -4.28 L2.93 -3.58 L2.89 -5.27 L1.61 -2.04 L-0.04 -3.62 L-0.04 -1.02 L2.52 -1.19 L1.07 -2.72 L1.78 -0.52 L1.22 -0.52 L-0.92 2.18 L-2.17 0.57 L-0.58 1.08 L-1.53 2.87 L-3.05 1.67 L-2.64 1.55 L-4.54 2.28 L-3.6 3.61 L-2.55 2.1 L-3.36 5.41 L-0.53 1.19" stroke="none" stroke-width="0" fill="#a5d8ff" fill-rule="evenodd"></path><path fill="#e7f5ff" d="M -4.36,-2.49 Q -4.36,-2.49 -3.88,-3.53 -3.39,-4.57 -2.24,-6.81 -1.09,-9.04 0.63,-11.89 2.36,-14.74 2.46,-15.13 2.55,-15.53 3.10,-16.04 3.65,-16.55 4.31,-16.91 4.96,-17.27 5.69,-17.47 6.41,-17.66 7.16,-17.68 7.91,-17.69 8.64,-17.53 9.37,-17.37 10.04,-17.03 10.71,-16.70 11.28,-16.21 11.85,-15.73 12.29,-15.12 12.73,-14.52 13.01,-13.82 13.29,-13.13 13.40,-12.39 13.50,-11.64 13.43,-10.90 13.36,-10.15 13.11,-9.45 12.86,-8.74 12.44,-8.12 12.03,-7.49 12.75,-9.86 13.47,-12.24 13.00,-9.66 12.54,-7.08 10.85,-4.32 9.16,-1.55 7.83,0.38 6.50,2.33 4.97,4.29 3.44,6.25 1.48,7.94 -0.47,9.63 -1.29,9.88 -2.10,10.13 -2.95,10.18 -3.80,10.23 -4.63,10.07 -5.47,9.92 -6.24,9.57 -7.01,9.22 -7.68,8.69 -8.35,8.16 -8.87,7.49 -9.39,6.82 -9.74,6.04 -10.08,5.27 -10.23,4.43 -10.38,3.60 -10.33,2.75 -10.27,1.90 -10.02,1.09 -9.76,0.28 -9.32,-0.44 -8.88,-1.16 -8.27,-1.76 -7.67,-2.36 -6.94,-2.80 -6.21,-3.23 -5.48,-4.10 -4.74,-4.96 -3.82,-5.59 -2.90,-6.21 -1.84,-6.52 -0.77,-6.82 0.33,-6.76 1.44,-6.71 2.48,-6.30 3.51,-5.89 4.36,-5.18 5.21,-4.46 5.79,-3.51 6.36,-2.56 6.61,-1.48 6.85,-0.40 6.73,0.70 6.62,1.80 6.16,2.81 5.69,3.82 4.93,4.63 4.17,5.44 3.19,5.97 2.21,6.49 1.12,6.68 0.02,6.86 -1.06,6.69 -2.16,6.51 -3.14,5.99 -4.13,5.48 -4.89,4.67 -5.66,3.87 -6.13,2.87 -6.60,1.86 -6.73,0.76 -6.85,-0.34 -6.62,-1.42 -6.38,-2.51 -5.81,-3.46 -5.25,-4.42 -4.40,-5.14 -3.56,-5.86 -2.53,-6.28 -1.50,-6.69 -0.39,-6.76 0.71,-6.82 1.78,-6.53 2.85,-6.24 3.77,-5.62 4.70,-5.00 5.37,-4.12 6.05,-3.24 6.41,-2.18 6.77,-1.13 6.77,-0.02 6.77,1.08 6.42,2.13 6.07,3.19 5.41,4.07 4.74,4.96 4.74,4.96 4.74,4.96 2.13,7.30 -0.47,9.63 -1.29,9.88 -2.10,10.13 -2.95,10.18 -3.79,10.23 -4.63,10.07 -5.47,9.92 -6.24,9.57 -7.01,9.22 -7.68,8.69 -8.35,8.16 -8.87,7.49 -9.39,6.82 -9.74,6.04 -10.08,5.27 -10.23,4.43 -10.38,3.60 -10.33,2.75 -10.27,1.90 -10.02,1.09 -9.76,0.28 -9.32,-0.44 -8.88,-1.16 -8.27,-1.76 -7.67,-2.36 -6.94,-2.80 -6.21,-3.23 -6.25,-2.99 -6.29,-2.74 -4.52,-5.20 -2.75,-7.65 -0.74,-8.85 1.25,-10.05 1.90,-12.79 2.55,-15.53 3.10,-16.04 3.65,-16.55 4.31,-16.91 4.96,-17.27 5.69,-17.47 6.41,-17.66 7.16,-17.68 7.91,-17.69 8.64,-17.53 9.37,-17.37 10.04,-17.03 10.71,-16.70 11.28,-16.21 11.85,-15.73 12.29,-15.12 12.73,-14.52 13.01,-13.82 13.29,-13.13 13.40,-12.39 13.50,-11.65 13.43,-10.90 13.36,-10.15 13.11,-9.45 12.86,-8.74 12.44,-8.12 12.03,-7.49 12.07,-7.54 12.11,-7.60 10.46,-5.75 8.80,-3.91 7.23,-1.65 5.66,0.59 5.01,1.54 4.36,2.49 4.00,2.98 3.64,3.47 3.17,3.85 2.70,4.24 2.16,4.50 1.61,4.76 1.02,4.89 0.42,5.01 -0.17,4.99 -0.78,4.97 -1.36,4.80 -1.95,4.63 -2.47,4.33 -3.00,4.03 -3.44,3.61 -3.88,3.20 -4.21,2.68 -4.53,2.17 -4.73,1.60 -4.92,1.02 -4.97,0.42 -5.02,-0.18 -4.93,-0.77 -4.84,-1.37 -4.60,-1.93 -4.36,-2.49 -4.36,-2.49 L -4.36,-2.49 Z"></path></g><g transform="translate(187.92658643466132 73.26282965157259) rotate(0 7.166472426150278 -4.201046287307463)" stroke="none"><path fill="#e7f5ff" d="M -2.65,-4.42 Q -2.65,-4.42 -1.27,-5.34 0.09,-6.27 2.13,-7.87 4.16,-9.47 6.48,-10.92 8.81,-12.37 11.12,-13.38 13.43,-14.40 14.42,-14.39 15.40,-14.37 16.32,-14.05 17.25,-13.72 18.02,-13.11 18.80,-12.51 19.34,-11.69 19.87,-10.86 20.12,-9.91 20.37,-8.96 20.30,-7.98 20.24,-7.00 19.86,-6.10 19.48,-5.19 18.84,-4.45 18.19,-3.71 17.34,-3.22 16.49,-2.72 15.53,-2.53 14.57,-2.33 13.59,-2.45 12.62,-2.57 11.73,-3.00 10.85,-3.42 10.14,-4.11 9.44,-4.80 8.99,-5.67 8.55,-6.54 8.40,-7.52 8.26,-8.49 8.43,-9.45 8.60,-10.42 9.08,-11.28 9.55,-12.14 10.27,-12.81 11.00,-13.47 11.89,-13.87 12.79,-14.27 13.77,-14.36 14.75,-14.45 15.70,-14.23 16.66,-14.00 17.49,-13.48 18.33,-12.96 18.95,-12.21 19.58,-11.45 19.93,-10.53 20.28,-9.61 20.31,-8.63 20.35,-7.65 20.08,-6.71 19.80,-5.77 19.24,-4.96 18.67,-4.16 17.88,-3.57 17.09,-2.99 16.16,-2.69 15.22,-2.39 15.22,-2.39 15.22,-2.39 13.34,-1.50 11.46,-0.60 8.52,1.13 5.58,2.86 4.11,3.64 2.65,4.42 2.08,4.67 1.51,4.93 0.90,5.04 0.29,5.15 -0.32,5.11 -0.94,5.07 -1.54,4.88 -2.13,4.69 -2.66,4.37 -3.19,4.05 -3.63,3.60 -4.07,3.16 -4.39,2.63 -4.71,2.10 -4.89,1.50 -5.07,0.91 -5.11,0.29 -5.14,-0.32 -5.03,-0.94 -4.92,-1.55 -4.66,-2.11 -4.40,-2.68 -4.02,-3.17 -3.63,-3.66 -3.14,-4.04 -2.65,-4.42 -2.65,-4.42 L -2.65,-4.42 Z"></path></g><g transform="translate(171.61663426179382 75.23978041080113) rotate(0 -6.425122961606917 -8.154966659544044)" stroke="none"><path fill="#a5daff" d="M -5.04,0.50 Q -5.04,0.50 -5.27,-0.90 -5.51,-2.31 -6.02,-4.53 -6.53,-6.75 -7.44,-8.68 -8.35,-10.62 -5.89,-11.11 -3.43,-11.61 -5.05,-9.56 -6.68,-7.52 -6.33,-7.88 -5.98,-8.24 -6.18,-7.15 -6.39,-6.06 -6.93,-5.09 -7.48,-4.12 -8.30,-3.37 -9.12,-2.63 -10.14,-2.18 -11.16,-1.74 -12.27,-1.65 -13.38,-1.55 -14.45,-1.81 -15.53,-2.08 -16.47,-2.67 -17.41,-3.27 -18.11,-4.13 -18.81,-4.99 -19.20,-6.04 -19.58,-7.08 -19.62,-8.19 -19.65,-9.30 -19.33,-10.36 -19.01,-11.42 -18.36,-12.33 -17.72,-13.23 -16.82,-13.89 -15.92,-14.54 -14.86,-14.87 -13.80,-15.20 -12.69,-15.17 -11.58,-15.15 -10.53,-14.77 -9.49,-14.39 -8.62,-13.70 -7.75,-13.00 -7.15,-12.07 -6.55,-11.14 -6.28,-10.06 -6.00,-8.98 -6.09,-7.87 -6.17,-6.77 -6.61,-5.74 -7.05,-4.72 -7.78,-3.89 -8.52,-3.06 -9.49,-2.51 -10.45,-1.96 -11.54,-1.75 -12.63,-1.53 -13.73,-1.68 -14.84,-1.82 -15.83,-2.31 -16.83,-2.80 -17.62,-3.59 -18.41,-4.37 -18.90,-5.36 -19.40,-6.36 -19.56,-7.46 -19.71,-8.56 -19.71,-8.56 -19.71,-8.56 -18.39,-11.92 -17.07,-15.29 -15.56,-16.99 -14.05,-18.68 -12.04,-20.41 -10.04,-22.15 -6.82,-21.71 -3.60,-21.28 -1.70,-20.30 0.19,-19.32 1.74,-15.87 3.29,-12.42 3.97,-10.08 4.66,-7.73 4.80,-5.55 4.94,-3.36 4.99,-1.93 5.04,-0.50 5.02,0.10 5.01,0.71 4.85,1.30 4.69,1.89 4.40,2.43 4.10,2.96 3.69,3.41 3.27,3.86 2.76,4.19 2.25,4.53 1.68,4.73 1.10,4.94 0.50,5.00 -0.10,5.06 -0.71,4.97 -1.31,4.89 -1.88,4.66 -2.44,4.43 -2.94,4.07 -3.43,3.72 -3.83,3.25 -4.22,2.78 -4.50,2.24 -4.77,1.69 -4.90,1.09 -5.04,0.50 -5.04,0.50 L -5.04,0.50 Z"></path></g><g transform="translate(158.76638833858 66.8376878361862) rotate(0 6.67225830356756 -8.649209062796047)" stroke="none"><path fill="#a5daff" d="M -4.62,-1.73 Q -4.62,-1.73 -4.29,-2.90 -3.95,-4.08 -2.66,-6.43 -1.37,-8.79 0.05,-10.42 1.47,-12.05 3.21,-13.32 4.94,-14.59 6.21,-16.48 7.48,-18.36 7.16,-18.30 6.85,-18.24 7.17,-19.25 7.49,-20.26 8.12,-21.12 8.74,-21.98 9.61,-22.59 10.48,-23.20 11.50,-23.50 12.51,-23.80 13.57,-23.76 14.64,-23.73 15.63,-23.35 16.62,-22.98 17.44,-22.30 18.26,-21.63 18.83,-20.73 19.39,-19.83 19.64,-18.80 19.88,-17.77 19.79,-16.71 19.69,-15.65 19.26,-14.68 18.84,-13.71 18.12,-12.93 17.40,-12.14 16.47,-11.63 15.55,-11.11 14.50,-10.92 13.46,-10.73 12.41,-10.89 11.36,-11.04 10.41,-11.52 9.46,-12.00 8.72,-12.76 7.98,-13.52 7.51,-14.47 7.05,-15.43 6.92,-16.48 6.78,-17.53 6.99,-18.57 7.20,-19.61 7.73,-20.53 8.26,-21.45 9.06,-22.15 9.86,-22.85 10.84,-23.26 11.82,-23.68 12.87,-23.75 13.93,-23.83 14.96,-23.56 15.99,-23.30 16.88,-22.72 17.77,-22.14 18.42,-21.30 19.08,-20.47 19.44,-19.47 19.79,-18.47 19.81,-17.41 19.83,-16.35 19.83,-16.35 19.83,-16.35 17.72,-12.73 15.62,-9.12 13.99,-7.54 12.37,-5.97 10.55,-4.79 8.74,-3.60 7.20,-2.03 5.66,-0.46 5.14,0.63 4.62,1.73 4.35,2.26 4.07,2.79 3.68,3.24 3.29,3.68 2.80,4.02 2.31,4.36 1.75,4.58 1.20,4.79 0.60,4.86 0.01,4.94 -0.57,4.87 -1.16,4.80 -1.72,4.59 -2.28,4.38 -2.77,4.04 -3.26,3.71 -3.66,3.26 -4.05,2.82 -4.33,2.29 -4.61,1.76 -4.76,1.19 -4.90,0.61 -4.90,0.01 -4.90,-0.57 -4.76,-1.15 -4.62,-1.73 -4.62,-1.73 L -4.62,-1.73 Z"></path></g><g transform="translate(172.1109049457151 49.53926971059411) rotate(0 8.154976086433749 10.379052760733202)" stroke="none"><path fill="#a5daff" d="M -4.06,-2.71 Q -4.06,-2.71 -3.58,-3.61 -3.09,-4.51 -1.79,-6.24 -0.49,-7.97 1.68,-9.90 3.86,-11.83 6.86,-11.58 9.86,-11.33 11.79,-9.61 13.73,-7.90 15.11,-6.16 16.49,-4.42 16.09,-1.32 15.68,1.76 14.76,4.17 13.84,6.57 12.14,8.61 10.44,10.65 10.00,8.44 9.56,6.23 11.50,7.79 13.45,9.36 15.98,10.92 18.50,12.48 20.51,13.63 22.53,14.78 23.13,17.22 23.73,19.65 23.15,23.58 22.56,27.51 22.45,27.59 22.33,27.66 22.06,28.85 21.78,30.04 21.14,31.07 20.51,32.11 19.57,32.89 18.63,33.67 17.50,34.10 16.36,34.54 15.15,34.60 13.93,34.65 12.76,34.31 11.59,33.97 10.59,33.28 9.59,32.59 8.86,31.61 8.14,30.63 7.76,29.48 7.38,28.32 7.40,27.10 7.41,25.88 7.81,24.73 8.21,23.58 8.96,22.62 9.71,21.66 10.72,20.99 11.73,20.32 12.91,20.00 14.09,19.69 15.30,19.77 16.52,19.85 17.64,20.31 18.77,20.77 19.69,21.57 20.61,22.37 21.22,23.42 21.84,24.47 22.09,25.66 22.34,26.85 22.20,28.06 22.05,29.27 21.53,30.37 21.01,31.47 20.16,32.34 19.31,33.22 18.23,33.78 17.15,34.33 15.95,34.52 14.74,34.70 13.54,34.49 12.34,34.28 11.27,33.70 10.20,33.12 9.38,32.23 8.55,31.33 8.05,30.22 7.55,29.11 7.43,27.90 7.31,26.69 7.31,26.69 7.31,26.69 8.95,25.29 10.59,23.89 8.73,22.20 6.88,20.51 9.01,21.73 11.13,22.96 8.77,22.18 6.40,21.40 4.29,19.53 2.19,17.66 0.87,15.71 -0.44,13.76 -0.72,10.95 -0.99,8.13 -0.45,5.97 0.08,3.80 1.57,1.41 3.07,-0.97 4.37,-3.23 5.67,-5.49 4.95,-3.21 4.23,-0.93 6.46,-1.76 8.70,-2.60 7.03,-0.74 5.36,1.10 4.71,1.90 4.06,2.71 3.68,3.15 3.30,3.60 2.82,3.94 2.34,4.29 1.79,4.50 1.24,4.72 0.66,4.80 0.07,4.88 -0.50,4.82 -1.09,4.76 -1.64,4.56 -2.20,4.36 -2.69,4.03 -3.18,3.71 -3.58,3.27 -3.97,2.84 -4.26,2.32 -4.54,1.80 -4.69,1.23 -4.84,0.66 -4.85,0.07 -4.86,-0.51 -4.73,-1.08 -4.59,-1.65 -4.33,-2.18 -4.06,-2.71 -4.06,-2.71 L -4.06,-2.71 Z"></path></g><g transform="translate(172.1109049457151 50.033521540735876) rotate(0 -1.2356201484647045 -2.718328504441189)" stroke="none"><path d="M-0.2 -1.8 L1.37 -1.32 L0.71 -1.43 L-2.04 -1.65 L-2.56 0.21 L-1.67 0.44 L-0.16 -0.84 L-2.08 -1.32 L-3.07 -1.69 L-2.16 -4.88 L-2.12 -3.64 L-3.69 -5.33 L-3.49 -3.58 L-3.76 -5.44 L-3.71 -5.11 L-1.3 -7.12 L-2.61 -4.99 L-2.1 -5.45" stroke="none" stroke-width="0" fill="#a5d8ff" fill-rule="evenodd"></path><path fill="#a5daff" d="M -4.03,2.68 Q -4.03,2.68 -4.68,1.88 -5.33,1.08 -6.24,-0.80 -7.14,-2.70 -7.34,-3.29 -7.54,-3.88 -7.60,-4.50 -7.65,-5.13 -7.55,-5.75 -7.45,-6.36 -7.21,-6.94 -6.97,-7.51 -6.59,-8.02 -6.22,-8.52 -5.74,-8.91 -5.25,-9.31 -4.69,-9.58 -4.13,-9.85 -3.51,-9.98 -2.90,-10.10 -2.28,-10.08 -1.65,-10.06 -1.05,-9.89 -0.45,-9.71 0.08,-9.40 0.62,-9.09 1.08,-8.66 1.53,-8.23 1.86,-7.70 2.20,-7.18 1.48,-4.03 0.76,-0.88 0.03,-0.47 -0.70,-0.06 -1.52,0.08 -2.34,0.24 -3.18,0.12 -4.01,0.00 -4.76,-0.36 -5.51,-0.74 -6.10,-1.33 -6.69,-1.93 -7.06,-2.68 -7.43,-3.43 -7.54,-4.27 -7.65,-5.10 -7.49,-5.92 -7.33,-6.74 -6.91,-7.47 -6.50,-8.20 -5.87,-8.76 -5.24,-9.32 -4.47,-9.65 -3.70,-9.97 -2.86,-10.04 -2.03,-10.10 -1.21,-9.90 -0.40,-9.69 0.30,-9.24 1.00,-8.78 1.52,-8.13 2.05,-7.47 2.33,-6.68 2.62,-5.90 2.64,-5.06 2.66,-4.22 2.41,-3.42 2.16,-2.62 1.67,-1.94 1.18,-1.26 0.49,-0.77 -0.18,-0.28 -0.98,-0.04 -1.79,0.19 -2.62,0.17 -3.46,0.14 -4.25,-0.14 -5.04,-0.43 -5.69,-0.96 -6.34,-1.49 -6.79,-2.20 -7.24,-2.91 -7.44,-3.72 -7.64,-4.54 -7.56,-5.37 -7.49,-6.21 -7.16,-6.98 -6.82,-7.75 -6.98,-5.22 -7.14,-2.70 -7.34,-3.29 -7.54,-3.88 -7.60,-4.50 -7.65,-5.13 -7.55,-5.74 -7.45,-6.36 -7.21,-6.94 -6.97,-7.51 -6.59,-8.01 -6.22,-8.52 -5.74,-8.91 -5.25,-9.31 -4.69,-9.58 -4.13,-9.85 -3.51,-9.98 -2.90,-10.10 -2.28,-10.08 -1.65,-10.06 -1.05,-9.89 -0.45,-9.72 0.08,-9.40 0.62,-9.09 1.08,-8.66 1.53,-8.23 1.86,-7.70 2.20,-7.18 2.63,-5.83 3.06,-4.49 3.54,-3.59 4.03,-2.68 4.29,-2.16 4.55,-1.64 4.69,-1.07 4.82,-0.50 4.81,0.07 4.80,0.66 4.65,1.22 4.50,1.79 4.22,2.30 3.94,2.81 3.55,3.24 3.15,3.68 2.66,4.00 2.18,4.32 1.63,4.52 1.08,4.72 0.50,4.78 -0.07,4.84 -0.65,4.76 -1.23,4.68 -1.77,4.47 -2.32,4.25 -2.79,3.91 -3.27,3.57 -3.65,3.13 -4.03,2.68 -4.03,2.68 L -4.03,2.68 Z"></path></g><g transform="translate(169.6396646487857 45.09111636199526) rotate(0 9.390596234898453 10.13192684566232)" stroke="none"><path fill="#a5daff" d="M 3.13,-3.76 Q 3.13,-3.76 4.04,-3.13 4.95,-2.49 7.38,-0.58 9.81,1.33 11.51,3.69 13.21,6.05 14.93,8.48 16.64,10.91 18.55,12.34 20.46,13.76 22.80,15.63 25.15,17.51 25.42,18.60 25.69,19.69 25.60,20.80 25.52,21.92 25.07,22.96 24.63,23.99 23.88,24.83 23.13,25.66 22.16,26.22 21.18,26.77 20.08,26.98 18.97,27.20 17.86,27.05 16.75,26.90 15.74,26.40 14.73,25.90 13.94,25.11 13.14,24.32 12.64,23.31 12.14,22.31 11.99,21.19 11.84,20.08 12.05,18.98 12.26,17.87 12.81,16.90 13.36,15.92 14.19,15.17 15.03,14.42 16.06,13.97 17.09,13.52 18.21,13.43 19.33,13.34 20.42,13.61 21.51,13.88 22.46,14.48 23.40,15.09 24.11,15.96 24.81,16.83 25.20,17.89 25.59,18.94 25.62,20.06 25.66,21.19 25.33,22.26 25.00,23.34 24.34,24.25 23.69,25.16 22.78,25.82 21.87,26.47 20.79,26.80 19.72,27.14 18.60,27.11 17.48,27.08 16.42,26.69 15.37,26.31 14.49,25.60 13.61,24.90 13.01,23.96 12.40,23.01 12.40,23.01 12.40,23.01 13.15,24.04 13.89,25.06 11.66,22.90 9.43,20.73 7.99,19.08 6.55,17.42 5.28,15.29 4.00,13.17 5.27,14.95 6.54,16.73 5.19,14.43 3.85,12.14 2.96,9.98 2.06,7.82 0.25,6.58 -1.54,5.34 -2.34,4.55 -3.13,3.76 -3.54,3.33 -3.94,2.90 -4.23,2.38 -4.52,1.87 -4.68,1.30 -4.84,0.73 -4.86,0.14 -4.87,-0.44 -4.75,-1.02 -4.63,-1.59 -4.37,-2.12 -4.11,-2.65 -3.73,-3.11 -3.35,-3.56 -2.88,-3.91 -2.40,-4.26 -1.86,-4.49 -1.31,-4.71 -0.73,-4.80 -0.14,-4.89 0.44,-4.84 1.02,-4.78 1.58,-4.59 2.14,-4.40 2.64,-4.08 3.13,-3.76 3.13,-3.76 L 3.13,-3.76 Z"></path></g><g transform="translate(190.39778902403168 78.2052348303132) rotate(0 4.695269836779971 -2.9654449926223094)" stroke="none"><path fill="#a5daff" d="M -1.35,-4.74 Q -1.35,-4.74 -0.41,-5.10 0.53,-5.47 2.80,-6.95 5.07,-8.42 3.38,-6.65 1.69,-4.88 2.71,-5.78 3.73,-6.68 3.96,-7.34 4.19,-7.99 4.57,-8.58 4.95,-9.16 5.46,-9.64 5.98,-10.12 6.59,-10.46 7.20,-10.80 7.87,-10.98 8.54,-11.16 9.24,-11.18 9.94,-11.20 10.62,-11.05 11.30,-10.90 11.93,-10.59 12.56,-10.28 13.09,-9.83 13.62,-9.38 14.04,-8.82 14.45,-8.25 14.71,-7.61 14.97,-6.96 15.08,-6.27 15.18,-5.58 15.11,-4.88 15.04,-4.19 15.11,-4.65 15.17,-5.11 14.97,-4.19 14.76,-3.28 14.28,-2.47 13.79,-1.67 13.08,-1.07 12.36,-0.46 11.49,-0.12 10.62,0.22 9.68,0.27 8.75,0.32 7.84,0.06 6.94,-0.18 6.17,-0.71 5.39,-1.23 4.83,-1.98 4.26,-2.73 3.96,-3.62 3.67,-4.51 3.67,-5.44 3.67,-6.38 3.97,-7.27 4.27,-8.16 4.84,-8.90 5.41,-9.65 6.19,-10.17 6.96,-10.70 7.87,-10.94 8.77,-11.19 9.71,-11.14 10.64,-11.09 11.51,-10.74 12.38,-10.39 13.10,-9.78 13.81,-9.17 14.29,-8.37 14.77,-7.56 14.97,-6.65 15.17,-5.73 15.07,-4.80 14.96,-3.87 14.57,-3.02 14.17,-2.17 13.53,-1.49 12.88,-0.81 12.05,-0.37 11.22,0.05 10.30,0.20 9.37,0.35 8.45,0.20 7.52,0.04 6.70,-0.39 5.87,-0.83 5.23,-1.51 4.58,-2.19 4.19,-3.04 3.80,-3.89 3.76,-5.29 3.73,-6.68 3.96,-7.33 4.19,-7.99 4.57,-8.58 4.95,-9.16 5.46,-9.64 5.98,-10.12 6.59,-10.46 7.20,-10.80 7.87,-10.98 8.54,-11.16 9.24,-11.18 9.94,-11.20 10.62,-11.05 11.30,-10.90 11.93,-10.59 12.56,-10.28 13.09,-9.83 13.62,-9.38 14.04,-8.82 14.45,-8.25 14.71,-7.61 14.97,-6.96 15.08,-6.27 15.18,-5.58 15.11,-4.88 15.04,-4.19 13.51,-2.12 11.98,-0.04 9.82,1.10 7.66,2.26 5.55,3.30 3.44,4.33 2.40,4.54 1.35,4.74 0.76,4.84 0.18,4.93 -0.41,4.88 -1.00,4.83 -1.56,4.64 -2.13,4.45 -2.63,4.13 -3.13,3.81 -3.54,3.38 -3.95,2.95 -4.25,2.43 -4.54,1.91 -4.71,1.34 -4.87,0.77 -4.89,0.17 -4.91,-0.41 -4.79,-0.99 -4.67,-1.58 -4.41,-2.11 -4.16,-2.65 -3.78,-3.11 -3.40,-3.57 -2.92,-3.92 -2.45,-4.28 -1.90,-4.51 -1.35,-4.74 -1.35,-4.74 L -1.35,-4.74 Z"></path></g><g transform="translate(198.79986274486703 73.26282965157259) rotate(0 0.7413683183229409 -6.178006473425739)" stroke="none"><path fill="#a5daff" d="M -2.39,-1.02 Q -2.39,-1.02 -1.99,-2.03 -1.59,-3.03 -1.09,-4.01 -0.60,-4.99 0.03,-6.47 0.67,-7.94 1.14,-9.13 1.61,-10.31 2.84,-11.67 4.08,-13.03 6.96,-13.55 9.83,-14.07 10.27,-12.57 10.71,-11.07 10.39,-10.04 10.07,-9.01 9.52,-7.93 8.96,-6.86 8.46,-5.30 7.96,-3.75 7.68,-3.00 7.40,-2.26 7.22,-1.86 7.04,-1.47 6.78,-1.14 6.51,-0.80 6.17,-0.54 5.83,-0.27 5.43,-0.10 5.04,0.06 4.62,0.14 4.19,0.21 3.76,0.18 3.33,0.15 2.92,0.02 2.51,-0.10 2.15,-0.32 1.78,-0.55 1.48,-0.86 1.18,-1.16 0.96,-1.53 0.74,-1.90 0.61,-2.31 0.49,-2.73 0.47,-3.16 0.44,-3.58 0.52,-4.01 0.60,-4.43 0.67,-3.20 0.74,-1.96 0.60,-3.17 0.45,-4.38 0.80,-5.40 1.15,-6.42 0.97,-6.99 0.80,-7.57 0.85,-8.00 0.91,-8.44 1.07,-8.85 1.23,-9.26 1.48,-9.62 1.73,-9.98 2.06,-10.27 2.39,-10.55 2.79,-10.76 3.18,-10.96 3.60,-11.06 4.03,-11.16 4.47,-11.16 4.91,-11.15 5.34,-11.04 5.76,-10.94 6.15,-10.73 6.54,-10.52 6.86,-10.23 7.19,-9.93 7.44,-9.57 7.68,-9.21 7.84,-8.79 7.99,-8.38 8.04,-7.95 8.09,-7.51 6.45,-5.75 4.80,-4.00 3.40,-3.26 1.99,-2.53 0.90,-2.16 -0.18,-1.79 -1.38,-1.75 -2.58,-1.70 -4.25,-1.70 -5.93,-1.69 -6.52,-1.79 -7.12,-1.89 -7.65,-2.17 -8.19,-2.46 -8.60,-2.90 -9.02,-3.33 -9.27,-3.88 -9.53,-4.43 -9.59,-5.03 -9.66,-5.63 -9.53,-6.22 -9.40,-6.81 -9.09,-7.33 -8.77,-7.85 -8.31,-8.24 -7.85,-8.63 -7.29,-8.86 -6.73,-9.08 -6.13,-9.11 -5.52,-9.15 -4.94,-8.98 -4.36,-8.82 -3.86,-8.48 -3.36,-8.14 -2.99,-7.66 -2.62,-7.18 -2.43,-6.61 -2.24,-6.04 -2.24,-5.43 -2.24,-4.83 -2.43,-4.25 -2.62,-3.68 -2.99,-3.20 -3.36,-2.72 -3.86,-2.38 -4.36,-2.04 -4.94,-1.88 -5.52,-1.72 -6.13,-1.75 -6.73,-1.78 -7.29,-2.01 -7.85,-2.23 -8.31,-2.62 -8.77,-3.01 -9.09,-3.53 -9.40,-4.05 -9.53,-4.64 -9.66,-5.23 -9.59,-5.83 -9.53,-6.43 -9.27,-6.98 -9.02,-7.53 -8.60,-7.97 -8.19,-8.41 -7.65,-8.69 -7.12,-8.97 -6.52,-9.07 -5.92,-9.17 -5.93,-9.17 -5.93,-9.17 -4.22,-8.62 -2.51,-8.07 -0.98,-8.83 0.53,-9.58 2.31,-10.26 4.08,-10.93 2.44,-9.25 0.80,-7.57 0.85,-8.00 0.91,-8.44 1.07,-8.85 1.23,-9.26 1.48,-9.62 1.73,-9.98 2.06,-10.27 2.39,-10.55 2.79,-10.76 3.18,-10.96 3.60,-11.06 4.03,-11.16 4.47,-11.16 4.91,-11.15 5.34,-11.04 5.76,-10.94 6.15,-10.73 6.54,-10.52 6.86,-10.23 7.19,-9.93 7.44,-9.57 7.68,-9.21 7.84,-8.79 7.99,-8.38 8.04,-7.95 8.09,-7.51 8.08,-7.26 8.08,-7.01 7.64,-5.93 7.20,-4.85 7.30,-3.55 7.40,-2.26 7.22,-1.86 7.04,-1.47 6.78,-1.14 6.51,-0.80 6.17,-0.54 5.83,-0.27 5.43,-0.10 5.04,0.06 4.62,0.14 4.19,0.21 3.76,0.18 3.33,0.15 2.92,0.02 2.51,-0.10 2.15,-0.32 1.78,-0.55 1.48,-0.86 1.18,-1.16 0.96,-1.53 0.74,-1.90 0.61,-2.31 0.49,-2.73 0.47,-3.15 0.44,-3.58 0.52,-4.01 0.60,-4.43 0.65,-4.68 0.69,-4.93 1.11,-5.91 1.54,-6.89 1.95,-8.11 2.36,-9.33 3.44,-9.84 4.52,-10.35 7.19,-10.34 9.86,-10.32 8.92,-9.44 7.97,-8.56 7.10,-7.62 6.23,-6.69 5.58,-5.18 4.93,-3.67 4.11,-2.30 3.29,-0.94 2.84,0.04 2.39,1.02 2.23,1.29 2.07,1.56 1.86,1.79 1.64,2.02 1.37,2.18 1.11,2.35 0.81,2.45 0.51,2.55 0.20,2.57 -0.11,2.60 -0.42,2.55 -0.73,2.50 -1.01,2.37 -1.30,2.25 -1.55,2.06 -1.80,1.87 -2.00,1.63 -2.20,1.38 -2.33,1.10 -2.47,0.81 -2.53,0.51 -2.59,0.20 -2.58,-0.10 -2.57,-0.42 -2.48,-0.72 -2.39,-1.02 -2.39,-1.02 L -2.39,-1.02 Z"></path></g><g transform="translate(192.86899161340193 67.82617264269027) rotate(0 6.672239449788037 -4.201046287307463)" stroke="none"><path d="M1.92 -0.94 L1.5 1.96 L1.12 -1.49 L2.13 -2.04 L1.47 -2.92 L2.02 -0.73 L3.91 -1.7 L2.79 -3.01 L3.23 -3.13 L4.91 -3.11 L2.06 -2.9 L5.67 -2.63 L5.38 -4.49 L5.74 -3.97 L4.53 -3.25 L4.6 -6.41 L6.16 -5.36 L8.09 -4.56 L8.28 -3.38 L6.91 -6.38 L6.76 -7.17 L6.56 -6.66 L9.27 -4.45 L9.92 -6.56 L9.38 -7.29 L8.22 -7.03 L7.96 -6.59 L9.99 -7.94 L9.25 -8.11 L11.14 -5.95 L11.8 -5.95 L9.92 -8.57 L13.04 -9.04 L13.91 -7.67 L12.74 -8.68 L12.56 -9.97 L12.51 -8.49 L13.15 -9.01 L11.79 -8.43 L10.78 -6.16 L11.86 -6.33 L8.42 -6.19 L8.36 -7.85 L8.37 -6.66 L7.27 -6.97 L8.29 -6.49 L5.91 -7.06 L6.16 -6.96 L4.95 -4.28 L8.34 -3.68 L6.9 -5.7 L3.99 -6.1 L6.11 -5.17 L3.15 -7.02 L2.78 -4.92 L2.69 -4.59 L5.45 -5.53" stroke="none" stroke-width="0" fill="#a5d8ff" fill-rule="evenodd"></path><path fill="#a5daff" d="M -1.32,-2.21 Q -1.32,-2.21 -0.63,-2.67 0.04,-3.13 1.20,-4.27 2.36,-5.41 3.29,-5.91 4.23,-6.42 5.39,-7.39 6.54,-8.36 7.66,-9.13 8.78,-9.90 10.00,-10.69 11.21,-11.48 11.45,-11.53 11.69,-11.57 12.09,-11.68 12.50,-11.79 12.92,-11.79 13.34,-11.80 13.75,-11.71 14.16,-11.61 14.53,-11.42 14.91,-11.23 15.22,-10.96 15.54,-10.69 15.79,-10.35 16.03,-10.01 16.19,-9.62 16.34,-9.22 16.40,-8.81 16.46,-8.39 16.41,-7.98 16.37,-7.56 16.23,-7.16 16.09,-6.77 15.85,-6.42 15.62,-6.07 15.31,-5.79 15.00,-5.50 14.63,-5.30 14.26,-5.10 13.07,-4.56 11.87,-4.02 10.93,-3.26 9.99,-2.51 8.73,-2.17 7.46,-1.83 5.46,-1.81 3.46,-1.79 2.87,-1.88 2.29,-1.98 1.77,-2.26 1.25,-2.53 0.85,-2.96 0.44,-3.39 0.19,-3.92 -0.04,-4.46 -0.11,-5.04 -0.17,-5.63 -0.05,-6.20 0.07,-6.78 0.37,-7.28 0.68,-7.79 1.13,-8.17 1.58,-8.55 2.12,-8.77 2.67,-8.99 3.26,-9.02 3.85,-9.05 4.42,-8.89 4.98,-8.74 5.47,-8.41 5.96,-8.08 6.32,-7.61 6.67,-7.14 6.86,-6.58 7.05,-6.02 7.05,-5.43 7.05,-4.84 6.86,-4.28 6.67,-3.73 6.32,-3.26 5.96,-2.79 5.47,-2.46 4.98,-2.13 4.42,-1.97 3.85,-1.81 3.26,-1.84 2.67,-1.87 2.12,-2.09 1.58,-2.31 1.13,-2.69 0.68,-3.07 0.37,-3.58 0.07,-4.08 -0.05,-4.66 -0.17,-5.23 -0.11,-5.82 -0.04,-6.41 0.19,-6.94 0.44,-7.48 0.85,-7.90 1.25,-8.33 1.77,-8.61 2.29,-8.88 2.87,-8.98 3.46,-9.07 3.45,-9.07 3.45,-9.07 5.65,-9.20 7.85,-9.32 8.85,-9.81 9.85,-10.30 10.77,-10.94 11.69,-11.57 12.09,-11.68 12.50,-11.79 12.92,-11.79 13.34,-11.80 13.75,-11.71 14.16,-11.61 14.53,-11.42 14.91,-11.23 15.22,-10.96 15.54,-10.69 15.79,-10.35 16.03,-10.01 16.19,-9.62 16.34,-9.23 16.40,-8.81 16.46,-8.39 16.41,-7.98 16.37,-7.56 16.23,-7.16 16.09,-6.77 15.85,-6.42 15.62,-6.07 15.31,-5.79 15.00,-5.50 14.63,-5.30 14.26,-5.10 14.27,-5.30 14.28,-5.50 13.13,-4.69 11.97,-3.89 10.19,-3.24 8.41,-2.59 6.70,-1.54 5.00,-0.48 3.89,0.47 2.79,1.43 2.05,1.82 1.32,2.21 1.04,2.33 0.75,2.46 0.45,2.51 0.14,2.57 -0.16,2.55 -0.47,2.53 -0.76,2.44 -1.06,2.34 -1.33,2.18 -1.59,2.02 -1.81,1.80 -2.03,1.58 -2.19,1.31 -2.35,1.05 -2.44,0.75 -2.53,0.45 -2.55,0.14 -2.57,-0.16 -2.51,-0.47 -2.45,-0.77 -2.33,-1.05 -2.20,-1.34 -2.01,-1.58 -1.81,-1.82 -1.57,-2.02 -1.32,-2.21 -1.32,-2.21 L -1.32,-2.21 Z"></path></g><g stroke-linecap="round" transform="translate(10 10) rotate(0 123.80724595669614 110.46277177056498)"><path d="M32 0 M32 0 C104.95 1.45, 179.05 -1.05, 215.61 0 M32 0 C90.84 0.85, 151.69 0.61, 215.61 0 M215.61 0 C236.15 1.36, 248.19 12.32, 247.61 32 M215.61 0 C235.8 -0.83, 245.94 9.54, 247.61 32 M247.61 32 C245.89 80.09, 245.9 124.17, 247.61 188.93 M247.61 32 C247.91 83.94, 248.14 133.67, 247.61 188.93 M247.61 188.93 C246.9 212.1, 237.71 222.22, 215.61 220.93 M247.61 188.93 C249.32 211.38, 236.32 220.06, 215.61 220.93 M215.61 220.93 C173.36 220.6, 128.76 219.59, 32 220.93 M215.61 220.93 C162.53 219.7, 108.53 219.01, 32 220.93 M32 220.93 C11.97 221.17, -0.43 209.52, 0 188.93 M32 220.93 C12.74 219.4, 2.08 212.12, 0 188.93 M0 188.93 C0.12 151.33, 0.87 112.65, 0 32 M0 188.93 C-1.47 138.9, 0.11 91.06, 0 32 M0 32 C0.91 11.74, 9.22 -0.62, 32 0 M0 32 C1.64 11.37, 9.4 2.11, 32 0" stroke="#1e1e1e" stroke-width="1" fill="none"></path></g><g transform="translate(69.30886214488692 86.6073085511486) rotate(0 0.00004999999998744897 0.00004999999998744897)" stroke="none"><path fill="#a5daff" d="M 1.57,-1.57 Q 1.57,-1.57 1.77,-1.27 1.98,-0.98 2.09,-0.64 2.20,-0.29 2.19,0.05 2.18,0.41 2.05,0.75 1.93,1.09 1.70,1.37 1.48,1.65 1.18,1.84 0.87,2.04 0.52,2.12 0.18,2.21 -0.17,2.18 -0.53,2.15 -0.86,2.01 -1.19,1.87 -1.46,1.63 -1.73,1.39 -1.90,1.07 -2.08,0.76 -2.15,0.41 -2.21,0.05 -2.17,-0.29 -2.12,-0.65 -1.96,-0.97 -1.80,-1.29 -1.54,-1.54 -1.29,-1.80 -0.97,-1.96 -0.65,-2.12 -0.29,-2.17 0.06,-2.21 0.41,-2.15 0.76,-2.08 1.07,-1.90 1.39,-1.73 1.63,-1.46 1.87,-1.19 2.01,-0.86 2.15,-0.53 2.18,-0.17 2.21,0.18 2.12,0.52 2.03,0.87 1.84,1.18 1.65,1.48 1.37,1.70 1.09,1.93 0.75,2.05 0.41,2.18 0.05,2.19 -0.30,2.20 -0.64,2.09 -0.98,1.98 -1.27,1.77 -1.57,1.56 -1.57,1.57 -1.57,1.57 -1.73,1.35 -1.90,1.14 -2.01,0.90 -2.12,0.66 -2.16,0.39 -2.21,0.13 -2.20,-0.13 -2.18,-0.40 -2.10,-0.65 -2.02,-0.91 -1.88,-1.14 -1.74,-1.36 -1.55,-1.55 -1.36,-1.74 -1.14,-1.88 -0.91,-2.02 -0.65,-2.10 -0.40,-2.18 -0.13,-2.20 0.13,-2.21 0.39,-2.16 0.66,-2.12 0.90,-2.01 1.14,-1.90 1.35,-1.73 1.57,-1.57 1.57,-1.57 L 1.57,-1.57 Z"></path></g><g transform="translate(84.13607768110876 72.76857782143082) rotate(0 -9.637693869300051 -1.7298436979371559)" stroke="none"><path fill="#a5daff" d="M -0.42,2.56 Q -0.42,2.56 -2.12,2.21 -3.81,1.86 -5.15,1.61 -6.49,1.35 -7.54,1.12 -8.59,0.89 -10.17,0.85 -11.75,0.81 -13.68,0.46 -15.62,0.11 -17.52,-0.20 -19.43,-0.52 -19.89,-0.62 -20.35,-0.72 -20.76,-0.97 -21.17,-1.21 -21.48,-1.58 -21.79,-1.94 -21.96,-2.38 -22.14,-2.82 -22.17,-3.29 -22.19,-3.77 -22.06,-4.23 -21.94,-4.69 -21.67,-5.08 -21.41,-5.47 -21.03,-5.76 -20.65,-6.05 -20.20,-6.20 -19.75,-6.35 -19.27,-6.35 -18.80,-6.35 -18.35,-6.20 -17.90,-6.05 -17.52,-5.76 -17.14,-5.48 -16.87,-5.08 -16.61,-4.69 -16.48,-4.23 -16.35,-3.78 -16.38,-3.30 -16.40,-2.83 -16.58,-2.38 -16.75,-1.94 -17.06,-1.58 -17.37,-1.22 -17.77,-0.97 -18.18,-0.73 -18.64,-0.62 -19.11,-0.52 -19.58,-0.57 -20.05,-0.62 -20.49,-0.82 -20.92,-1.02 -21.26,-1.35 -21.61,-1.67 -21.83,-2.09 -22.05,-2.51 -22.13,-2.98 -22.21,-3.45 -22.13,-3.92 -22.06,-4.39 -21.83,-4.81 -21.61,-5.23 -21.27,-5.56 -20.92,-5.88 -20.49,-6.08 -20.06,-6.28 -19.59,-6.34 -19.11,-6.39 -19.11,-6.39 -19.11,-6.39 -17.50,-6.04 -15.89,-5.70 -14.25,-5.33 -12.60,-4.97 -11.11,-4.71 -9.62,-4.45 -7.56,-3.99 -5.49,-3.54 -4.25,-3.27 -3.00,-3.00 -1.28,-2.78 0.42,-2.56 0.72,-2.47 1.02,-2.38 1.29,-2.22 1.57,-2.07 1.79,-1.85 2.02,-1.63 2.18,-1.37 2.35,-1.10 2.45,-0.80 2.54,-0.50 2.57,-0.19 2.59,0.11 2.54,0.42 2.49,0.73 2.36,1.02 2.24,1.30 2.05,1.55 1.86,1.80 1.62,2.00 1.38,2.20 1.09,2.33 0.81,2.46 0.50,2.53 0.19,2.59 -0.11,2.57 -0.42,2.56 -0.42,2.56 L -0.42,2.56 Z"></path></g><g transform="translate(64.86068994250866 69.30889042555651) rotate(0 11.367528140347474 16.804185149229824)" stroke="none"><path fill="#a5daff" d="M 2.15,-1.16 Q 2.15,-1.16 3.03,0.75 3.90,2.66 4.62,4.02 5.35,5.37 6.03,6.21 6.71,7.05 8.09,8.99 9.47,10.93 11.03,12.74 12.59,14.55 13.87,16.05 15.15,17.55 16.18,18.79 17.21,20.03 18.11,21.17 19.02,22.30 19.75,23.24 20.48,24.18 21.70,26.03 22.93,27.87 24.11,30.01 25.29,32.15 25.46,32.59 25.62,33.04 25.64,33.52 25.65,33.99 25.51,34.45 25.37,34.90 25.10,35.29 24.82,35.68 24.43,35.96 24.05,36.24 23.59,36.38 23.14,36.52 22.66,36.51 22.18,36.50 21.74,36.34 21.29,36.17 20.92,35.87 20.54,35.58 20.29,35.18 20.03,34.78 19.91,34.31 19.79,33.85 19.83,33.38 19.87,32.90 20.06,32.46 20.24,32.02 20.56,31.67 20.88,31.31 21.29,31.08 21.71,30.84 22.17,30.75 22.64,30.66 23.11,30.72 23.59,30.78 24.01,30.99 24.44,31.21 24.78,31.54 25.12,31.88 25.33,32.30 25.54,32.73 25.61,33.20 25.68,33.67 25.59,34.14 25.50,34.61 25.27,35.03 25.03,35.44 24.68,35.76 24.32,36.08 23.89,36.27 23.45,36.46 22.97,36.50 22.50,36.54 22.04,36.43 21.57,36.31 21.17,36.06 20.77,35.80 20.47,35.43 20.17,35.06 20.17,35.06 20.17,35.06 19.37,33.58 18.57,32.10 17.84,30.60 17.12,29.09 15.96,27.45 14.81,25.81 13.31,24.01 11.81,22.20 10.85,20.75 9.89,19.29 9.22,18.43 8.55,17.57 7.77,16.53 6.99,15.49 6.16,14.53 5.32,13.57 4.16,11.66 2.99,9.75 2.22,8.58 1.45,7.42 0.76,6.07 0.07,4.72 -1.04,2.94 -2.15,1.16 -2.26,0.88 -2.37,0.61 -2.41,0.31 -2.45,0.02 -2.42,-0.26 -2.38,-0.56 -2.28,-0.83 -2.18,-1.11 -2.01,-1.36 -1.85,-1.60 -1.63,-1.80 -1.41,-2.00 -1.15,-2.14 -0.89,-2.28 -0.60,-2.35 -0.32,-2.43 -0.02,-2.43 0.26,-2.43 0.55,-2.37 0.84,-2.30 1.10,-2.16 1.37,-2.03 1.59,-1.83 1.81,-1.64 1.98,-1.40 2.15,-1.16 2.15,-1.16 L 2.15,-1.16 Z"></path></g><g transform="translate(87.5957462232036 102.91726072401616) rotate(0 -9.884810357481228 -13.097381265174363)" stroke="none"><path fill="#a5daff" d="M -2.23,1.39 Q -2.23,1.39 -2.93,0.25 -3.64,-0.88 -4.24,-1.76 -4.84,-2.64 -6.13,-4.41 -7.42,-6.19 -8.03,-7.22 -8.63,-8.24 -9.49,-9.18 -10.35,-10.11 -11.80,-11.70 -13.26,-13.29 -14.30,-14.77 -15.34,-16.25 -16.15,-17.26 -16.97,-18.28 -18.15,-19.44 -19.33,-20.59 -18.57,-21.79 -17.81,-22.99 -18.29,-22.74 -18.78,-22.50 -19.31,-22.43 -19.85,-22.35 -20.38,-22.46 -20.91,-22.56 -21.38,-22.82 -21.85,-23.09 -22.21,-23.49 -22.58,-23.89 -22.79,-24.39 -23.01,-24.88 -23.05,-25.42 -23.10,-25.96 -22.97,-26.48 -22.84,-27.01 -22.55,-27.47 -22.26,-27.92 -21.84,-28.26 -21.42,-28.60 -20.91,-28.79 -20.40,-28.98 -19.86,-28.99 -19.32,-29.01 -18.80,-28.85 -18.29,-28.69 -17.85,-28.38 -17.41,-28.06 -17.09,-27.63 -16.77,-27.19 -16.61,-26.67 -16.45,-26.15 -16.47,-25.61 -16.48,-25.07 -16.67,-24.56 -16.85,-24.06 -17.19,-23.63 -17.53,-23.21 -17.98,-22.92 -18.44,-22.63 -18.96,-22.50 -19.49,-22.37 -20.03,-22.41 -20.56,-22.45 -21.06,-22.66 -21.56,-22.88 -21.96,-23.24 -22.36,-23.60 -22.63,-24.07 -22.90,-24.54 -23.00,-25.07 -23.10,-25.60 -23.03,-26.13 -22.96,-26.67 -22.72,-27.15 -22.48,-27.64 -22.10,-28.02 -21.72,-28.41 -21.72,-28.41 -21.72,-28.41 -18.25,-27.08 -14.78,-25.76 -13.98,-24.68 -13.17,-23.60 -11.96,-22.00 -10.75,-20.39 -9.70,-18.79 -8.64,-17.19 -7.54,-15.96 -6.44,-14.73 -5.67,-13.65 -4.91,-12.58 -3.99,-11.02 -3.07,-9.46 -1.70,-7.50 -0.34,-5.54 0.23,-4.60 0.80,-3.66 1.51,-2.52 2.23,-1.39 2.36,-1.10 2.49,-0.81 2.56,-0.50 2.62,-0.19 2.60,0.11 2.59,0.43 2.50,0.73 2.41,1.04 2.25,1.31 2.09,1.59 1.87,1.81 1.65,2.04 1.38,2.21 1.11,2.38 0.81,2.48 0.51,2.57 0.19,2.60 -0.11,2.62 -0.43,2.57 -0.74,2.52 -1.03,2.39 -1.32,2.27 -1.57,2.07 -1.83,1.88 -2.03,1.64 -2.23,1.39 -2.23,1.39 L -2.23,1.39 Z"></path></g><g transform="translate(57.94131515075992 90.56124777716468) rotate(0 13.09738126517442 -14.827215536221786)" stroke="none"><path fill="#a5daff" d="M -2.01,-1.60 Q -2.01,-1.60 -1.47,-2.34 -0.93,-3.07 -0.25,-3.95 0.43,-4.83 1.03,-5.78 1.64,-6.74 2.52,-7.46 3.39,-8.19 4.13,-9.06 4.87,-9.94 6.12,-10.49 7.37,-11.05 7.87,-12.30 8.36,-13.55 9.12,-14.65 9.89,-15.75 10.63,-16.82 11.37,-17.90 12.13,-18.69 12.88,-19.48 13.89,-20.46 14.90,-21.44 15.35,-22.40 15.80,-23.37 16.65,-24.56 17.50,-25.76 18.35,-26.55 19.20,-27.34 19.98,-28.14 20.76,-28.93 21.60,-29.73 22.43,-30.52 22.57,-30.83 22.70,-31.13 23.03,-31.65 23.36,-32.17 23.84,-32.55 24.31,-32.94 24.89,-33.15 25.46,-33.36 26.07,-33.38 26.68,-33.40 27.27,-33.23 27.86,-33.05 28.36,-32.69 28.86,-32.34 29.22,-31.84 29.57,-31.35 29.76,-30.76 29.94,-30.18 29.93,-29.56 29.91,-28.95 29.70,-28.38 29.49,-27.80 29.11,-27.32 28.73,-26.84 28.22,-26.51 27.70,-26.18 27.11,-26.03 26.51,-25.88 25.90,-25.92 25.29,-25.97 24.73,-26.21 24.16,-26.45 23.71,-26.86 23.25,-27.26 22.94,-27.80 22.64,-28.33 22.52,-28.93 22.41,-29.53 22.49,-30.14 22.57,-30.75 22.84,-31.30 23.11,-31.85 23.54,-32.28 23.97,-32.72 24.52,-32.99 25.06,-33.26 25.67,-33.35 26.28,-33.43 26.88,-33.32 27.48,-33.21 28.02,-32.91 28.55,-32.61 28.96,-32.16 29.37,-31.70 29.62,-31.14 29.86,-30.58 29.91,-29.97 29.97,-29.36 29.82,-28.76 29.67,-28.17 29.67,-28.17 29.67,-28.17 27.70,-26.10 25.72,-24.04 24.76,-22.80 23.80,-21.57 23.13,-20.70 22.46,-19.84 21.51,-18.72 20.55,-17.59 19.53,-16.23 18.51,-14.86 17.51,-14.00 16.50,-13.14 15.65,-11.82 14.80,-10.50 13.87,-9.41 12.93,-8.32 12.19,-7.37 11.45,-6.41 10.34,-5.79 9.24,-5.18 8.27,-4.60 7.31,-4.02 6.34,-3.19 5.37,-2.36 4.29,-1.06 3.20,0.23 2.61,0.92 2.01,1.60 1.78,1.82 1.56,2.04 1.30,2.20 1.03,2.35 0.73,2.44 0.43,2.53 0.12,2.55 -0.18,2.56 -0.48,2.50 -0.79,2.45 -1.07,2.32 -1.35,2.19 -1.59,1.99 -1.83,1.80 -2.02,1.55 -2.21,1.30 -2.34,1.02 -2.46,0.74 -2.51,0.43 -2.57,0.12 -2.55,-0.18 -2.52,-0.49 -2.43,-0.78 -2.33,-1.08 -2.17,-1.34 -2.01,-1.60 -2.01,-1.60 L -2.01,-1.60 Z"></path></g><g transform="translate(79.19367250236814 102.42300889387445) rotate(0 12.108896458670358 -16.30993331908809)" stroke="none"><path fill="#a5daff" d="M 0,-2.55 Q 0,-2.55 0.71,-2.60 1.42,-2.64 2.74,-2.76 4.06,-2.87 5.55,-2.70 7.04,-2.52 8.62,-1.99 10.20,-1.46 11.39,-0.92 12.59,-0.38 13.77,-0.70 14.96,-1.01 16.19,-1.04 17.42,-1.08 18.75,-0.80 20.07,-0.52 18.60,0.07 17.12,0.67 18.22,-0.73 19.31,-2.14 19.71,-3.26 20.11,-4.39 21.03,-5.07 21.94,-5.75 21.21,-4.96 20.47,-4.18 20.46,-5.37 20.45,-6.55 20.44,-7.79 20.43,-9.02 19.82,-9.95 19.22,-10.88 19.08,-12.13 18.94,-13.38 18.37,-14.50 17.80,-15.62 17.07,-16.58 16.33,-17.54 15.91,-19.00 15.49,-20.46 15.24,-21.70 14.99,-22.95 14.50,-24.14 14.01,-25.33 13.97,-26.56 13.93,-27.79 14.44,-26.77 14.95,-25.75 14.33,-26.73 13.70,-27.70 13.35,-29.02 13.00,-30.34 12.73,-31.70 12.45,-33.07 13.00,-32.43 13.55,-31.79 12.97,-32.01 12.38,-32.23 11.90,-32.63 11.42,-33.03 11.08,-33.56 10.75,-34.09 10.61,-34.70 10.46,-35.31 10.52,-35.93 10.58,-36.56 10.83,-37.13 11.09,-37.70 11.51,-38.16 11.94,-38.63 12.49,-38.93 13.03,-39.23 13.65,-39.34 14.27,-39.45 14.89,-39.36 15.51,-39.27 16.07,-38.98 16.62,-38.70 17.06,-38.25 17.50,-37.80 17.77,-37.24 18.04,-36.67 18.12,-36.05 18.20,-35.43 18.07,-34.82 17.95,-34.20 17.63,-33.66 17.32,-33.12 16.85,-32.71 16.38,-32.29 15.80,-32.05 15.22,-31.81 14.59,-31.77 13.97,-31.72 13.36,-31.88 12.76,-32.04 12.23,-32.38 11.71,-32.73 11.32,-33.22 10.93,-33.71 10.73,-34.30 10.52,-34.89 10.51,-35.52 10.50,-36.15 10.69,-36.74 10.88,-37.34 11.25,-37.85 11.62,-38.35 12.13,-38.71 12.65,-39.07 13.25,-39.25 13.85,-39.42 14.48,-39.40 15.10,-39.38 15.10,-39.38 15.10,-39.38 17.08,-37.05 19.06,-34.73 19.68,-33.29 20.29,-31.84 20.65,-30.70 21.02,-29.56 21.34,-27.98 21.66,-26.40 20.92,-27.22 20.19,-28.04 20.85,-26.68 21.52,-25.32 21.73,-24.11 21.94,-22.90 22.78,-21.45 23.61,-20.00 22.91,-20.80 22.21,-21.60 22.91,-20.60 23.62,-19.61 24.29,-18.49 24.96,-17.38 25.75,-15.69 26.54,-14.00 26.87,-12.95 27.20,-11.90 27.60,-10.21 27.99,-8.53 27.98,-7.29 27.97,-6.05 27.95,-4.96 27.92,-3.88 27.72,-2.80 27.52,-1.73 26.57,-0.61 25.62,0.51 24.91,1.49 24.19,2.48 23.65,3.56 23.12,4.65 22.18,5.20 21.24,5.75 19.08,5.88 16.93,6.01 15.69,5.97 14.45,5.94 13.28,5.87 12.11,5.81 10.63,5.24 9.15,4.67 7.90,4.28 6.65,3.89 5.35,3.38 4.06,2.87 2.74,2.76 1.42,2.64 0.71,2.60 0,2.55 -0.30,2.52 -0.61,2.48 -0.90,2.37 -1.18,2.26 -1.44,2.08 -1.69,1.91 -1.90,1.68 -2.10,1.45 -2.24,1.18 -2.39,0.90 -2.46,0.60 -2.53,0.30 -2.53,-0.00 -2.53,-0.30 -2.46,-0.60 -2.39,-0.90 -2.24,-1.18 -2.10,-1.45 -1.90,-1.68 -1.69,-1.91 -1.44,-2.08 -1.18,-2.26 -0.90,-2.37 -0.61,-2.48 -0.30,-2.52 0.00,-2.55 0.00,-2.55 L 0,-2.55 Z"></path></g><g transform="translate(82.15910806810075 102.91726072401616) rotate(0 -5.189521666921735 -3.212570907693191)" stroke="none"><path fill="#a5daff" d="M 0,2.55 Q 0,2.55 -0.71,2.60 -1.42,2.64 -2.74,2.76 -4.06,2.87 -5.30,2.96 -6.55,3.05 -8.06,2.85 -9.56,2.65 -10.66,1.86 -11.75,1.07 -13.70,1.15 -15.65,1.24 -16.91,0.63 -18.18,0.03 -18.64,-0.00 -19.09,-0.03 -19.40,-0.33 -19.71,-0.63 -19.93,-0.99 -20.16,-1.35 -20.29,-1.76 -20.43,-2.17 -20.46,-2.59 -20.49,-3.02 -20.42,-3.44 -20.35,-3.86 -20.18,-4.26 -20.01,-4.65 -19.75,-4.99 -19.49,-5.33 -19.15,-5.60 -18.82,-5.87 -18.43,-6.05 -18.05,-6.23 -17.63,-6.31 -17.21,-6.39 -16.78,-6.37 -16.35,-6.35 -15.94,-6.23 -15.53,-6.11 -15.16,-5.89 -14.79,-5.68 -16.74,-5.78 -18.68,-5.87 -17.52,-6.12 -16.36,-6.36 -15.30,-6.02 -14.24,-5.68 -13.17,-6.11 -12.10,-6.54 -10.98,-6.69 -9.86,-6.85 -8.65,-7.15 -7.44,-7.45 -6.36,-7.67 -5.28,-7.90 -4.07,-8.28 -2.86,-8.65 -1.63,-8.88 -0.40,-9.11 0.90,-9.49 2.21,-9.88 4.56,-9.96 6.90,-10.05 7.48,-9.96 8.06,-9.87 8.58,-9.59 9.10,-9.32 9.51,-8.90 9.91,-8.47 10.16,-7.94 10.41,-7.41 10.48,-6.82 10.54,-6.24 10.42,-5.66 10.29,-5.09 9.99,-4.58 9.69,-4.08 9.25,-3.70 8.80,-3.31 8.25,-3.10 7.71,-2.88 7.12,-2.84 6.54,-2.81 5.97,-2.96 5.40,-3.12 4.91,-3.45 4.43,-3.77 4.07,-4.24 3.71,-4.71 3.52,-5.26 3.33,-5.82 3.33,-6.41 3.33,-6.99 3.51,-7.55 3.70,-8.11 4.05,-8.58 4.41,-9.05 4.89,-9.38 5.38,-9.71 5.94,-9.87 6.51,-10.03 7.10,-10.00 7.68,-9.97 8.23,-9.75 8.78,-9.54 9.22,-9.16 9.67,-8.78 9.98,-8.28 10.28,-7.78 10.41,-7.20 10.54,-6.63 10.48,-6.05 10.42,-5.46 10.17,-4.93 9.93,-4.39 9.53,-3.96 9.12,-3.54 8.60,-3.26 8.09,-2.98 7.51,-2.89 6.93,-2.79 6.93,-2.79 6.93,-2.79 5.33,-2.89 3.73,-3.00 2.69,-2.61 1.66,-2.23 0.36,-1.96 -0.92,-1.70 -2.58,-1.23 -4.24,-0.77 -5.48,-0.76 -6.72,-0.75 -7.84,-0.26 -8.95,0.22 -10.35,0.43 -11.75,0.65 -13.44,0.85 -15.12,1.06 -16.56,0.70 -18.00,0.33 -16.52,0.18 -15.04,0.03 -17.07,0.00 -19.09,-0.03 -19.40,-0.33 -19.71,-0.63 -19.93,-0.99 -20.16,-1.35 -20.29,-1.76 -20.43,-2.17 -20.46,-2.59 -20.49,-3.02 -20.42,-3.44 -20.35,-3.86 -20.18,-4.26 -20.01,-4.65 -19.75,-4.99 -19.49,-5.33 -19.15,-5.60 -18.82,-5.87 -18.43,-6.05 -18.05,-6.23 -17.63,-6.31 -17.21,-6.39 -16.78,-6.37 -16.35,-6.35 -15.94,-6.23 -15.53,-6.11 -15.16,-5.89 -14.79,-5.68 -14.22,-5.47 -13.64,-5.25 -12.53,-5.04 -11.42,-4.83 -10.14,-4.63 -8.86,-4.42 -7.70,-3.74 -6.55,-3.05 -5.30,-2.96 -4.06,-2.87 -2.74,-2.76 -1.42,-2.64 -0.71,-2.60 0,-2.55 0.30,-2.52 0.61,-2.48 0.90,-2.37 1.18,-2.26 1.44,-2.08 1.69,-1.91 1.90,-1.68 2.10,-1.45 2.24,-1.18 2.39,-0.90 2.46,-0.60 2.53,-0.30 2.53,0.00 2.53,0.30 2.46,0.60 2.39,0.90 2.24,1.18 2.10,1.45 1.90,1.68 1.69,1.91 1.44,2.08 1.18,2.26 0.90,2.37 0.61,2.48 0.30,2.52 -0.00,2.55 -0.00,2.55 L 0,2.55 Z"></path></g><g transform="translate(89.07848285984937 96.49211890862978) rotate(0 0.00004999999998744897 0.00004999999998744897)" stroke="none"><path fill="#a5daff" d="M 1.57,-1.57 Q 1.57,-1.57 1.77,-1.27 1.98,-0.98 2.09,-0.64 2.20,-0.29 2.19,0.05 2.18,0.41 2.05,0.75 1.93,1.09 1.70,1.37 1.48,1.65 1.18,1.84 0.87,2.04 0.52,2.12 0.18,2.21 -0.17,2.18 -0.53,2.15 -0.86,2.01 -1.19,1.87 -1.46,1.63 -1.73,1.39 -1.90,1.07 -2.08,0.76 -2.15,0.41 -2.21,0.05 -2.17,-0.29 -2.12,-0.65 -1.96,-0.97 -1.80,-1.29 -1.54,-1.54 -1.29,-1.80 -0.97,-1.96 -0.65,-2.12 -0.29,-2.17 0.06,-2.21 0.41,-2.15 0.76,-2.08 1.07,-1.90 1.39,-1.73 1.63,-1.46 1.87,-1.19 2.01,-0.86 2.15,-0.53 2.18,-0.17 2.21,0.18 2.12,0.52 2.03,0.87 1.84,1.18 1.65,1.48 1.37,1.70 1.09,1.93 0.75,2.05 0.41,2.18 0.05,2.19 -0.30,2.20 -0.64,2.09 -0.98,1.98 -1.27,1.77 -1.57,1.56 -1.57,1.57 -1.57,1.57 -1.73,1.35 -1.90,1.14 -2.01,0.90 -2.12,0.66 -2.16,0.39 -2.21,0.13 -2.20,-0.13 -2.18,-0.40 -2.10,-0.65 -2.02,-0.91 -1.88,-1.14 -1.74,-1.36 -1.55,-1.55 -1.36,-1.74 -1.14,-1.88 -0.91,-2.02 -0.65,-2.10 -0.40,-2.18 -0.13,-2.20 0.13,-2.21 0.39,-2.16 0.66,-2.12 0.90,-2.01 1.14,-1.90 1.35,-1.73 1.57,-1.57 1.57,-1.57 L 1.57,-1.57 Z"></path></g><g transform="translate(75.57314417670852 118.82220813862932) rotate(0 21.352698493957746 -25.58793963605305)" stroke="none"><path fill="#ffffff" d="M -3.96,-3.45 Q -3.96,-3.45 -2.64,-5.06 -1.31,-6.67 0.70,-9.07 2.72,-11.47 4.03,-13.28 5.33,-15.08 6.61,-16.87 7.89,-18.66 9.16,-20.39 10.44,-22.11 11.91,-23.77 13.39,-25.42 14.74,-27.28 16.10,-29.14 17.64,-31.20 19.17,-33.25 20.57,-35.15 21.98,-37.05 23.77,-39.45 25.56,-41.85 26.99,-43.51 28.41,-45.18 29.86,-47.30 31.31,-49.43 33.36,-51.45 35.42,-53.47 33.76,-51.81 32.10,-50.15 34.22,-52.22 36.33,-54.30 34.56,-52.57 32.78,-50.83 34.73,-53.05 36.67,-55.27 37.76,-56.48 38.85,-57.70 39.99,-58.15 41.13,-58.59 42.36,-58.65 43.58,-58.70 44.76,-58.36 45.94,-58.03 46.95,-57.33 47.96,-56.63 48.70,-55.65 49.43,-54.67 49.81,-53.50 50.19,-52.33 50.18,-51.11 50.17,-49.88 49.77,-48.72 49.37,-47.56 48.62,-46.59 47.87,-45.62 46.85,-44.94 45.82,-44.26 44.64,-43.94 43.46,-43.63 42.23,-43.70 41.01,-43.78 39.87,-44.24 38.73,-44.71 37.81,-45.51 36.88,-46.31 36.26,-47.37 35.63,-48.43 35.38,-49.63 35.13,-50.83 35.27,-52.04 35.41,-53.26 35.94,-54.37 36.46,-55.48 37.31,-56.36 38.16,-57.25 39.25,-57.81 40.34,-58.38 41.55,-58.57 42.77,-58.75 43.98,-58.54 45.18,-58.34 46.26,-57.75 47.34,-57.17 48.18,-56.27 49.01,-55.37 49.52,-54.25 50.02,-53.14 50.15,-51.91 50.27,-50.69 49.99,-49.50 49.72,-48.30 49.08,-47.26 48.44,-46.21 47.49,-45.42 46.55,-44.64 46.55,-44.64 46.55,-44.64 46.59,-44.44 46.62,-44.24 44.84,-43.08 43.05,-41.92 44.78,-43.25 46.51,-44.57 44.85,-42.53 43.19,-40.49 41.70,-38.59 40.22,-36.68 38.52,-34.73 36.81,-32.79 35.19,-30.63 33.57,-28.47 32.13,-26.77 30.69,-25.07 29.06,-23.19 27.43,-21.31 25.80,-19.54 24.18,-17.77 22.49,-16.18 20.81,-14.60 19.25,-12.91 17.69,-11.23 16.25,-9.65 14.80,-8.07 12.94,-5.95 11.07,-3.83 8.93,-1.72 6.79,0.38 5.38,1.92 3.96,3.45 3.49,3.88 3.02,4.30 2.46,4.60 1.90,4.90 1.29,5.06 0.67,5.21 0.04,5.22 -0.59,5.22 -1.20,5.08 -1.82,4.93 -2.38,4.64 -2.95,4.35 -3.43,3.93 -3.90,3.52 -4.27,3.00 -4.63,2.48 -4.86,1.89 -5.09,1.30 -5.18,0.67 -5.26,0.04 -5.19,-0.58 -5.11,-1.21 -4.89,-1.81 -4.67,-2.40 -4.32,-2.93 -3.96,-3.45 -3.96,-3.45 L -3.96,-3.45 Z"></path></g><g transform="translate(121.10203525935424 73.64626223250099) rotate(0 -10.146941579814154 11.117517254143849)" stroke="none"><path fill="#ffffff" d="M 3.48,3.19 Q 3.48,3.19 2.99,3.86 2.50,4.53 0.71,6.25 -1.07,7.97 -1.70,10.15 -2.34,12.33 -3.64,14.14 -4.93,15.96 -3.55,14.24 -2.18,12.53 -3.98,14.89 -5.79,17.24 -7.17,19.07 -8.55,20.90 -10.68,22.18 -12.81,23.45 -10.58,21.96 -8.34,20.47 -10.38,22.10 -12.41,23.74 -13.36,24.87 -14.31,25.99 -15.07,26.85 -15.82,27.70 -16.81,28.27 -17.81,28.84 -18.93,29.07 -20.05,29.29 -21.18,29.14 -22.31,29.00 -23.34,28.50 -24.37,28.00 -25.18,27.19 -26.00,26.39 -26.51,25.37 -27.03,24.35 -27.19,23.22 -27.35,22.09 -27.14,20.97 -26.94,19.84 -26.38,18.84 -25.83,17.84 -24.98,17.07 -24.14,16.31 -23.09,15.85 -22.04,15.39 -20.90,15.29 -19.77,15.19 -18.65,15.45 -17.54,15.72 -16.58,16.33 -15.61,16.94 -14.89,17.82 -14.16,18.71 -13.76,19.78 -13.36,20.85 -13.32,21.99 -13.28,23.13 -13.61,24.23 -13.94,25.32 -14.60,26.26 -15.26,27.19 -16.18,27.86 -17.11,28.54 -18.20,28.88 -19.29,29.22 -20.43,29.20 -21.57,29.18 -22.65,28.79 -23.72,28.40 -24.62,27.69 -25.51,26.98 -26.14,26.02 -26.76,25.07 -27.04,23.96 -27.32,22.85 -27.24,21.71 -27.16,20.57 -26.71,19.52 -26.27,18.47 -26.27,18.47 -26.27,18.47 -24.18,16.74 -22.08,15.02 -20.51,13.58 -18.93,12.14 -20.55,13.81 -22.16,15.48 -20.22,13.91 -18.27,12.35 -16.63,10.80 -15.00,9.25 -13.14,7.59 -11.27,5.94 -12.82,8.06 -14.37,10.17 -12.86,7.95 -11.36,5.73 -9.89,3.92 -8.42,2.11 -6.57,0.00 -4.73,-2.10 -4.11,-2.64 -3.48,-3.19 -3.05,-3.56 -2.62,-3.93 -2.11,-4.19 -1.60,-4.44 -1.04,-4.57 -0.49,-4.70 0.07,-4.69 0.64,-4.68 1.20,-4.53 1.75,-4.39 2.25,-4.11 2.75,-3.84 3.17,-3.46 3.59,-3.07 3.90,-2.60 4.22,-2.12 4.41,-1.58 4.61,-1.05 4.66,-0.48 4.72,0.08 4.65,0.64 4.57,1.20 4.36,1.73 4.14,2.26 3.81,2.73 3.48,3.19 3.48,3.19 L 3.48,3.19 Z"></path></g><g transform="translate(75.92608935322585 121.82218155335909) rotate(0 12.088092928473543 -12.176332588473315)" stroke="none"><path fill="#ffffff" d="M -2.51,-3.95 Q -2.51,-3.95 -2.00,-4.37 -1.49,-4.79 0.33,-6.57 2.16,-8.35 3.48,-10.01 4.80,-11.68 6.43,-13.44 8.06,-15.20 9.36,-17.11 10.67,-19.03 9.24,-17.07 7.81,-15.12 9.00,-17.27 10.18,-19.42 11.66,-21.24 13.13,-23.06 11.75,-21.42 10.36,-19.78 12.27,-21.91 14.17,-24.03 12.68,-22.49 11.18,-20.96 12.73,-22.61 14.28,-24.25 15.95,-26.16 17.61,-28.08 21.35,-28.36 25.09,-28.63 27.62,-26.45 30.16,-24.27 25.04,-25.11 19.93,-25.95 19.53,-21.83 19.13,-17.71 18.42,-17.88 17.72,-18.05 16.82,-18.82 15.91,-19.59 15.30,-20.61 14.69,-21.64 14.43,-22.80 14.18,-23.96 14.31,-25.14 14.44,-26.33 14.94,-27.40 15.44,-28.48 16.26,-29.35 17.08,-30.21 18.13,-30.77 19.19,-31.32 20.36,-31.51 21.53,-31.70 22.71,-31.51 23.88,-31.31 24.93,-30.76 25.98,-30.20 26.80,-29.33 27.62,-28.47 28.12,-27.39 28.61,-26.30 28.74,-25.12 28.87,-23.94 28.61,-22.78 28.35,-21.61 27.74,-20.60 27.12,-19.58 26.21,-18.81 25.31,-18.04 24.20,-17.60 23.09,-17.16 21.91,-17.10 20.72,-17.04 19.57,-17.36 18.43,-17.68 17.44,-18.35 16.46,-19.02 15.74,-19.96 15.02,-20.91 14.64,-22.04 14.26,-23.17 14.27,-24.36 14.27,-25.55 14.65,-26.68 15.03,-27.80 15.75,-28.75 16.48,-29.70 17.46,-30.36 18.45,-31.03 19.59,-31.34 20.74,-31.66 21.93,-31.59 23.12,-31.53 24.22,-31.09 25.33,-30.64 25.33,-30.64 25.32,-30.64 25.95,-29.63 26.58,-28.62 27.88,-26.70 29.18,-24.79 28.70,-20.47 28.22,-16.15 22.27,-17.99 16.31,-19.83 18.25,-18.35 20.18,-16.87 22.72,-16.82 25.27,-16.77 23.61,-15.14 21.96,-13.51 20.41,-11.72 18.86,-9.94 20.22,-11.97 21.58,-14.00 20.26,-11.88 18.95,-9.76 20.05,-11.86 21.16,-13.97 20.29,-11.85 19.42,-9.73 17.46,-7.90 15.49,-6.07 13.31,-4.89 11.14,-3.72 9.35,-1.54 7.57,0.64 8.91,-1.10 10.24,-2.85 8.65,-1.19 7.06,0.46 5.39,1.92 3.72,3.37 3.12,3.66 2.51,3.95 2.00,4.20 1.49,4.44 0.94,4.56 0.39,4.67 -0.17,4.65 -0.73,4.63 -1.28,4.47 -1.82,4.32 -2.31,4.04 -2.80,3.75 -3.21,3.36 -3.62,2.97 -3.93,2.50 -4.23,2.02 -4.41,1.48 -4.59,0.95 -4.64,0.38 -4.68,-0.17 -4.60,-0.73 -4.51,-1.29 -4.29,-1.81 -4.07,-2.33 -3.73,-2.78 -3.39,-3.24 -2.95,-3.60 -2.51,-3.95 -2.51,-3.95 L -2.51,-3.95 Z"></path></g><g transform="translate(84.3965716374164 120.58689363077087) rotate(0 0.529404301294278 -0.4411713730353881)" stroke="none"><path fill="#ffffff" d="M 4.24,-1.32 Q 4.24,-1.32 4.30,-0.26 4.36,0.80 3.93,1.76 3.49,2.73 2.65,3.39 1.82,4.05 0.77,4.24 -0.26,4.43 -1.28,4.11 -2.29,3.80 -3.04,3.04 -3.80,2.29 -4.11,1.28 -4.43,0.26 -4.24,-0.77 -4.04,-1.82 -3.39,-2.65 -2.73,-3.49 -1.76,-3.93 -0.79,-4.36 0.26,-4.30 1.32,-4.23 2.23,-3.68 3.14,-3.13 3.69,-2.23 L 4.24,-1.32 Z"></path></g><g transform="translate(86.51420230607539 117.58692694778199) rotate(0 0.00004999999998744897 0.00004999999998744897)" stroke="none"><path fill="#ffffff" d="M 3.14,-3.14 Q 3.14,-3.14 3.55,-2.55 3.97,-1.97 4.18,-1.28 4.40,-0.59 4.38,0.11 4.36,0.83 4.11,1.51 3.86,2.18 3.41,2.74 2.96,3.30 2.36,3.69 1.75,4.08 1.05,4.25 0.36,4.42 -0.35,4.36 -1.07,4.31 -1.73,4.02 -2.39,3.74 -2.92,3.26 -3.46,2.78 -3.81,2.15 -4.16,1.53 -4.30,0.82 -4.43,0.11 -4.34,-0.59 -4.24,-1.30 -3.92,-1.94 -3.60,-2.59 -3.09,-3.09 -2.59,-3.60 -1.94,-3.92 -1.30,-4.24 -0.59,-4.34 0.12,-4.43 0.82,-4.30 1.53,-4.16 2.15,-3.81 2.78,-3.46 3.26,-2.92 3.74,-2.39 4.02,-1.73 4.31,-1.07 4.36,-0.35 4.42,0.36 4.25,1.05 4.07,1.75 3.69,2.36 3.30,2.96 2.74,3.41 2.18,3.86 1.51,4.11 0.83,4.36 0.11,4.38 -0.60,4.40 -1.28,4.18 -1.97,3.97 -2.55,3.55 -3.14,3.13 -3.14,3.14 -3.14,3.14 -3.47,2.71 -3.80,2.29 -4.02,1.80 -4.24,1.32 -4.33,0.79 -4.43,0.26 -4.40,-0.26 -4.36,-0.80 -4.20,-1.31 -4.04,-1.82 -3.77,-2.28 -3.49,-2.73 -3.11,-3.11 -2.73,-3.49 -2.28,-3.77 -1.82,-4.05 -1.31,-4.20 -0.80,-4.36 -0.26,-4.40 0.26,-4.43 0.79,-4.33 1.32,-4.24 1.80,-4.02 2.29,-3.80 2.71,-3.47 3.14,-3.14 3.14,-3.14 L 3.14,-3.14 Z"></path></g><g transform="translate(86.51420230607539 117.58692694778199) rotate(0 0.17646585651783653 -0.08822619651795094)" stroke="none"><path fill="#ffffff" d="M 4.24,-1.32 Q 4.24,-1.32 4.30,-0.26 4.36,0.80 3.93,1.76 3.49,2.73 2.65,3.39 1.82,4.05 0.77,4.24 -0.26,4.43 -1.28,4.11 -2.29,3.80 -3.04,3.04 -3.80,2.29 -4.11,1.28 -4.43,0.26 -4.24,-0.77 -4.04,-1.82 -3.39,-2.65 -2.73,-3.49 -1.76,-3.93 -0.79,-4.36 0.26,-4.30 1.32,-4.23 2.23,-3.68 3.14,-3.13 3.69,-2.23 L 4.24,-1.32 Z"></path></g><g transform="translate(88.1024084782174 115.46930974260488) rotate(0 0.00004999999998744897 0.00004999999998744897)" stroke="none"><path fill="#ffffff" d="M 3.14,-3.14 Q 3.14,-3.14 3.55,-2.55 3.97,-1.97 4.18,-1.28 4.40,-0.59 4.38,0.11 4.36,0.83 4.11,1.51 3.86,2.18 3.41,2.74 2.96,3.30 2.36,3.69 1.75,4.08 1.05,4.25 0.36,4.42 -0.35,4.36 -1.07,4.31 -1.73,4.02 -2.39,3.74 -2.92,3.26 -3.46,2.78 -3.81,2.15 -4.16,1.53 -4.30,0.82 -4.43,0.11 -4.34,-0.59 -4.24,-1.30 -3.92,-1.94 -3.60,-2.59 -3.09,-3.09 -2.59,-3.60 -1.94,-3.92 -1.30,-4.24 -0.59,-4.34 0.12,-4.43 0.82,-4.30 1.53,-4.16 2.15,-3.81 2.78,-3.46 3.26,-2.92 3.74,-2.39 4.02,-1.73 4.31,-1.07 4.36,-0.35 4.42,0.36 4.25,1.05 4.07,1.75 3.69,2.36 3.30,2.96 2.74,3.41 2.18,3.86 1.51,4.11 0.83,4.36 0.11,4.38 -0.60,4.40 -1.28,4.18 -1.97,3.97 -2.55,3.55 -3.14,3.13 -3.14,3.14 -3.14,3.14 -3.47,2.71 -3.80,2.29 -4.02,1.80 -4.24,1.32 -4.33,0.79 -4.43,0.26 -4.40,-0.26 -4.36,-0.80 -4.20,-1.31 -4.04,-1.82 -3.77,-2.28 -3.49,-2.73 -3.11,-3.11 -2.73,-3.49 -2.28,-3.77 -1.82,-4.05 -1.31,-4.20 -0.80,-4.36 -0.26,-4.40 0.26,-4.43 0.79,-4.33 1.32,-4.24 1.80,-4.02 2.29,-3.80 2.71,-3.47 3.14,-3.14 3.14,-3.14 L 3.14,-3.14 Z"></path></g><g transform="translate(89.16123054428783 115.2928371543461) rotate(0 16.76451217534509 -17.646854921415866)" stroke="none"><path fill="#ffffff" d="M -1.72,-1.72 Q -1.72,-1.72 -1.30,-2.21 -0.88,-2.70 -0.19,-3.59 0.49,-4.47 1.36,-5.32 2.24,-6.16 3.20,-6.85 4.15,-7.53 4.94,-8.43 5.73,-9.33 6.64,-10.45 7.55,-11.58 8.22,-12.43 8.89,-13.27 9.65,-14.27 10.42,-15.28 11.23,-16.36 12.04,-17.44 12.73,-18.36 13.42,-19.29 14.04,-20.19 14.66,-21.09 15.23,-22.02 15.81,-22.94 16.70,-23.78 17.58,-24.62 18.45,-25.52 19.32,-26.41 20.30,-27.42 21.28,-28.43 22.42,-29.65 23.57,-30.86 22.77,-30.10 21.97,-29.33 23.27,-30.44 24.57,-31.54 23.47,-30.50 22.37,-29.46 23.55,-30.77 24.73,-32.08 25.70,-32.97 26.68,-33.86 27.45,-34.72 28.21,-35.58 29.60,-36.94 31.00,-38.30 31.54,-38.62 32.09,-38.95 32.71,-39.08 33.33,-39.21 33.97,-39.14 34.60,-39.07 35.17,-38.80 35.75,-38.53 36.21,-38.09 36.67,-37.65 36.96,-37.09 37.26,-36.52 37.36,-35.89 37.45,-35.27 37.35,-34.64 37.24,-34.01 36.94,-33.45 36.64,-32.89 36.17,-32.46 35.71,-32.02 35.13,-31.76 34.55,-31.50 33.92,-31.43 33.29,-31.37 32.67,-31.51 32.05,-31.65 31.50,-31.98 30.96,-32.31 30.55,-32.80 30.14,-33.28 29.91,-33.87 29.68,-34.47 29.65,-35.10 29.62,-35.74 29.79,-36.35 29.97,-36.96 30.33,-37.48 30.69,-38.01 31.20,-38.39 31.70,-38.77 32.31,-38.97 32.91,-39.17 33.55,-39.17 34.18,-39.16 34.78,-38.96 35.39,-38.75 35.89,-38.36 36.39,-37.97 36.75,-37.45 37.10,-36.92 37.27,-36.30 37.43,-35.69 37.40,-35.06 37.36,-34.42 37.12,-33.83 36.88,-33.24 36.47,-32.76 36.05,-32.28 36.05,-32.28 36.05,-32.28 34.77,-31.31 33.49,-30.33 32.37,-29.34 31.25,-28.35 30.63,-27.41 30.01,-26.46 28.99,-25.72 27.97,-24.98 28.88,-26.05 29.79,-27.12 28.84,-25.96 27.88,-24.79 27.11,-23.71 26.34,-22.63 25.48,-21.93 24.62,-21.23 23.53,-20.30 22.44,-19.36 23.28,-20.24 24.13,-21.12 23.39,-20.22 22.66,-19.32 21.84,-18.60 21.02,-17.89 20.41,-16.98 19.80,-16.07 19.09,-15.02 18.38,-13.97 17.45,-12.94 16.51,-11.91 15.67,-11.06 14.83,-10.20 15.57,-10.98 16.32,-11.76 15.28,-10.72 14.24,-9.67 15.06,-10.57 15.87,-11.46 15.12,-10.47 14.36,-9.48 13.51,-8.49 12.65,-7.50 11.70,-6.55 10.76,-5.59 9.73,-4.75 8.71,-3.90 7.80,-2.99 6.89,-2.07 5.73,-1.50 4.57,-0.93 3.64,-0.02 2.71,0.88 2.21,1.30 1.72,1.72 1.49,1.90 1.26,2.08 0.99,2.20 0.72,2.32 0.43,2.38 0.14,2.43 -0.14,2.41 -0.43,2.39 -0.72,2.31 -1.00,2.22 -1.25,2.07 -1.50,1.92 -1.71,1.71 -1.92,1.50 -2.07,1.25 -2.22,1.00 -2.31,0.72 -2.39,0.43 -2.41,0.14 -2.43,-0.14 -2.38,-0.43 -2.32,-0.72 -2.20,-0.99 -2.08,-1.26 -1.90,-1.49 -1.72,-1.72 -1.72,-1.72 L -1.72,-1.72 Z"></path></g><g transform="translate(168.74854354717718 116.96928971822877) rotate(0 -18.26449888271003 22.764442175452416)" stroke="none"><path fill="#ffffff" d="M 1.82,1.59 Q 1.82,1.59 1.50,2.03 1.18,2.47 0.41,3.35 -0.35,4.23 -0.76,5.47 -1.17,6.71 -1.90,8.04 -2.64,9.37 -3.03,10.38 -3.42,11.39 -4.08,12.30 -4.74,13.22 -5.78,14.31 -6.81,15.40 -7.51,16.20 -8.21,17.00 -8.78,17.97 -9.34,18.94 -8.59,17.98 -7.84,17.03 -8.44,18.24 -9.03,19.45 -9.91,20.52 -10.79,21.60 -11.67,22.81 -12.55,24.03 -13.53,24.93 -14.50,25.83 -15.41,26.74 -16.33,27.64 -17.20,28.52 -18.08,29.41 -19.17,30.50 -20.27,31.59 -20.94,32.72 -21.61,33.85 -22.16,34.81 -22.70,35.78 -23.36,36.76 -24.02,37.73 -24.81,38.88 -25.61,40.03 -26.43,40.99 -27.26,41.95 -27.92,42.86 -28.59,43.77 -29.65,44.62 -30.71,45.48 -31.93,46.17 -33.16,46.85 -34.03,48.01 -34.90,49.17 -35.35,49.29 -35.81,49.41 -36.28,49.42 -36.76,49.42 -37.22,49.32 -37.68,49.21 -38.10,49.00 -38.52,48.79 -38.88,48.48 -39.24,48.17 -39.52,47.79 -39.79,47.40 -39.96,46.96 -40.14,46.52 -40.20,46.06 -40.27,45.59 -40.22,45.12 -40.17,44.65 -40.01,44.20 -39.85,43.76 -39.59,43.36 -39.33,42.97 -38.98,42.65 -38.63,42.33 -38.21,42.11 -37.80,41.88 -35.51,42.51 -33.23,43.15 -32.93,43.71 -32.63,44.27 -32.53,44.89 -32.43,45.52 -32.53,46.14 -32.63,46.77 -32.93,47.33 -33.22,47.89 -33.68,48.33 -34.14,48.77 -34.72,49.03 -35.29,49.30 -35.92,49.37 -36.55,49.44 -37.17,49.30 -37.79,49.17 -38.34,48.84 -38.88,48.52 -39.29,48.03 -39.71,47.55 -39.94,46.96 -40.18,46.37 -40.21,45.74 -40.25,45.11 -40.08,44.49 -39.91,43.88 -39.55,43.36 -39.20,42.83 -38.69,42.45 -38.19,42.06 -37.59,41.86 -36.99,41.65 -36.35,41.65 -35.72,41.65 -35.12,41.85 -34.51,42.06 -34.01,42.44 -33.50,42.82 -33.15,43.35 -32.79,43.87 -32.62,44.48 -32.45,45.09 -32.48,45.73 -32.52,46.36 -32.75,46.95 -32.98,47.54 -33.39,48.03 -33.80,48.51 -34.35,48.84 -34.89,49.17 -35.51,49.30 -36.13,49.44 -36.76,49.37 -37.39,49.30 -37.97,49.04 -38.54,48.77 -36.72,48.97 -34.90,49.17 -35.35,49.29 -35.81,49.41 -36.28,49.42 -36.76,49.42 -37.22,49.32 -37.68,49.21 -38.10,49.00 -38.52,48.79 -38.88,48.48 -39.24,48.17 -39.51,47.79 -39.79,47.40 -39.96,46.96 -40.14,46.52 -40.20,46.06 -40.27,45.59 -40.22,45.12 -40.17,44.65 -40.01,44.20 -39.85,43.76 -39.59,43.36 -39.33,42.97 -38.98,42.65 -38.63,42.33 -38.21,42.11 -37.80,41.88 -37.42,41.21 -37.05,40.55 -36.15,39.96 -35.24,39.38 -36.05,40.10 -36.85,40.82 -35.75,40.03 -34.64,39.24 -34.02,38.23 -33.39,37.22 -32.70,36.40 -32.01,35.59 -31.36,34.70 -30.71,33.81 -30.05,32.81 -29.40,31.81 -28.79,30.91 -28.17,30.01 -27.40,28.98 -26.62,27.95 -25.76,26.77 -24.90,25.60 -24.08,24.79 -23.27,23.99 -21.94,22.85 -20.61,21.71 -19.74,20.88 -18.88,20.06 -17.96,19.07 -17.05,18.09 -16.38,17.06 -15.71,16.02 -14.71,14.96 -13.71,13.89 -14.38,14.72 -15.05,15.55 -14.21,14.31 -13.37,13.06 -14.05,14.00 -14.72,14.94 -13.93,13.64 -13.13,12.34 -12.03,11.21 -10.92,10.08 -11.67,10.88 -12.42,11.69 -11.39,10.71 -10.35,9.73 -9.03,8.63 -7.70,7.54 -8.78,8.44 -9.85,9.34 -8.99,8.40 -8.12,7.46 -8.73,8.37 -9.35,9.28 -8.88,8.24 -8.41,7.19 -7.77,6.33 -7.13,5.47 -6.27,4.26 -5.41,3.05 -5.98,3.95 -6.54,4.86 -6.05,3.86 -5.56,2.86 -4.84,1.97 -4.11,1.08 -3.35,0.11 -2.60,-0.84 -2.21,-1.22 -1.82,-1.59 -1.60,-1.78 -1.38,-1.98 -1.12,-2.11 -0.87,-2.25 -0.58,-2.32 -0.30,-2.39 -0.01,-2.40 0.27,-2.40 0.56,-2.33 0.84,-2.26 1.10,-2.13 1.36,-1.99 1.58,-1.80 1.80,-1.61 1.96,-1.37 2.13,-1.13 2.24,-0.86 2.34,-0.59 2.38,-0.30 2.41,-0.01 2.38,0.27 2.35,0.56 2.25,0.83 2.14,1.11 1.98,1.35 1.82,1.59 1.82,1.59 L 1.82,1.59 Z"></path></g><g transform="translate(127.80783205140312 164.26285956127515) rotate(0 16.940984763603865 -18.79389981813381)" stroke="none"><path fill="#ffffff" d="M -2.32,-0.69 Q -2.32,-0.69 -2.21,-1.21 -2.11,-1.73 -1.73,-2.75 -1.35,-3.77 -0.85,-4.74 -0.36,-5.70 -0.13,-6.83 0.08,-7.96 2.01,-8.37 3.93,-8.78 4.99,-7.76 6.05,-6.75 4.97,-7.77 3.89,-8.79 2.39,-8.21 0.88,-7.63 1.76,-8.68 2.65,-9.74 3.34,-10.68 4.03,-11.61 5.13,-12.79 6.23,-13.96 7.19,-15.15 8.14,-16.34 8.82,-17.25 9.50,-18.16 10.33,-19.03 11.17,-19.90 12.09,-21.01 13.02,-22.13 14.03,-23.27 15.05,-24.41 14.44,-23.49 13.82,-22.57 14.54,-23.77 15.26,-24.97 16.14,-25.79 17.02,-26.62 18.15,-27.44 19.27,-28.26 20.09,-29.03 20.91,-29.80 21.71,-30.61 22.51,-31.42 23.45,-32.21 24.39,-33.00 25.08,-33.99 25.77,-34.97 26.53,-35.93 27.29,-36.89 28.46,-37.89 29.62,-38.90 30.45,-39.73 31.29,-40.57 31.83,-40.91 32.38,-41.24 33.00,-41.39 33.62,-41.53 34.26,-41.47 34.90,-41.40 35.48,-41.14 36.07,-40.88 36.53,-40.44 37.00,-40.01 37.31,-39.44 37.61,-38.88 37.72,-38.25 37.83,-37.62 37.74,-36.99 37.64,-36.36 37.34,-35.79 37.05,-35.22 36.59,-34.77 36.13,-34.33 35.55,-34.06 34.97,-33.78 34.34,-33.71 33.70,-33.63 33.07,-33.76 32.45,-33.89 31.90,-34.22 31.34,-34.54 30.93,-35.03 30.51,-35.51 30.26,-36.10 30.02,-36.70 29.98,-37.33 29.94,-37.97 30.11,-38.59 30.27,-39.21 30.62,-39.74 30.98,-40.28 31.49,-40.67 31.99,-41.06 32.60,-41.27 33.20,-41.48 33.84,-41.49 34.48,-41.49 35.09,-41.29 35.70,-41.10 36.21,-40.71 36.72,-40.33 37.09,-39.80 37.45,-39.28 37.63,-38.66 37.81,-38.05 37.78,-37.41 37.75,-36.77 37.52,-36.17 37.29,-35.57 36.88,-35.08 36.47,-34.59 36.47,-34.59 36.47,-34.59 35.80,-34.09 35.13,-33.60 34.03,-32.52 32.93,-31.45 32.19,-30.60 31.44,-29.75 30.51,-28.76 29.57,-27.78 30.26,-28.72 30.95,-29.67 30.20,-28.69 29.45,-27.71 28.45,-26.77 27.45,-25.82 26.61,-25.14 25.76,-24.46 25.02,-23.65 24.27,-22.84 23.32,-22.25 22.38,-21.65 21.30,-20.52 20.21,-19.38 20.82,-20.34 21.42,-21.29 20.82,-20.22 20.21,-19.15 18.99,-17.88 17.77,-16.61 18.55,-17.45 19.32,-18.29 18.52,-17.33 17.71,-16.38 16.69,-15.52 15.67,-14.66 14.84,-13.82 14.01,-12.97 14.71,-13.77 15.42,-14.56 14.75,-13.63 14.09,-12.71 13.18,-11.70 12.28,-10.68 11.52,-9.92 10.76,-9.15 9.91,-8.31 9.06,-7.46 9.82,-8.25 10.58,-9.04 9.49,-8.02 8.40,-7.00 7.55,-6.10 6.69,-5.20 7.43,-6.11 8.17,-7.02 7.44,-6.02 6.72,-5.01 5.62,-4.05 4.52,-3.09 2.94,-3.07 1.37,-3.05 0.63,-4.25 -0.09,-5.45 0.85,-4.66 1.81,-3.87 3.53,-4.07 5.25,-4.27 4.55,-3.25 3.85,-2.24 3.28,-1.26 2.71,-0.29 2.52,0.20 2.32,0.69 2.20,0.96 2.08,1.23 1.90,1.46 1.73,1.69 1.50,1.87 1.27,2.06 1.01,2.18 0.74,2.30 0.45,2.36 0.17,2.41 -0.11,2.40 -0.41,2.38 -0.69,2.30 -0.97,2.22 -1.22,2.07 -1.47,1.92 -1.68,1.71 -1.89,1.51 -2.04,1.26 -2.19,1.01 -2.28,0.73 -2.37,0.46 -2.39,0.17 -2.42,-0.12 -2.37,-0.40 -2.32,-0.69 -2.32,-0.69 L -2.32,-0.69 Z"></path></g><g transform="translate(174.74846344967307 116.43988205106399) rotate(0 8.823440924189754 15.352764707246223)" stroke="none"><path fill="#ffffff" d="M 1.86,1.76 Q 1.86,1.76 1.01,2.68 0.16,3.61 -1.56,5.49 -3.29,7.37 -4.35,8.72 -5.40,10.07 -6.12,11.02 -6.83,11.96 -7.56,13.19 -8.29,14.42 -8.69,15.52 -9.10,16.61 -9.59,17.60 -10.09,18.58 -10.76,19.95 -11.43,21.32 -11.95,22.29 -12.46,23.26 -13.23,24.69 -14.01,26.11 -14.51,27.11 -15.01,28.10 -15.62,29.24 -16.22,30.38 -16.92,31.91 -17.62,33.43 -18.13,34.49 -18.64,35.54 -19.25,36.57 -19.85,37.61 -20.67,39.08 -21.49,40.55 -22.41,42.01 -23.34,43.48 -24.35,45.17 -25.36,46.86 -26.21,48.30 -27.06,49.74 -27.76,51.12 -28.47,52.50 -29.06,53.59 -29.65,54.67 -30.49,56.27 -31.32,57.88 -32.03,59.21 -32.74,60.55 -33.58,62.05 -34.42,63.54 -35.10,64.71 -35.77,65.87 -36.23,66.94 -36.70,68.01 -37.23,69.11 -37.76,70.21 -37.72,70.19 -37.68,70.18 -37.88,70.55 -38.09,70.91 -38.37,71.22 -38.66,71.53 -39.01,71.77 -39.36,72.00 -39.75,72.14 -40.15,72.28 -40.57,72.32 -40.99,72.37 -41.40,72.31 -41.82,72.25 -42.21,72.09 -42.60,71.93 -42.94,71.69 -43.28,71.44 -43.56,71.12 -43.83,70.80 -44.02,70.43 -44.21,70.05 -44.30,69.64 -44.39,69.23 -44.38,68.81 -44.37,68.39 -44.27,67.98 -44.16,67.57 -43.16,66.47 -42.16,65.36 -40.66,64.22 -39.17,63.09 -34.54,58.70 -29.92,54.31 -26.38,50.73 -22.84,47.16 -19.76,44.04 -16.68,40.92 -13.81,38.00 -10.95,35.08 -8.39,32.44 -5.83,29.80 -3.26,27.08 -0.69,24.35 3.56,19.90 7.82,15.44 11.28,12.07 14.73,8.70 17.71,5.67 20.69,2.64 23.24,0.08 25.79,-2.47 28.18,-4.97 30.58,-7.46 33.78,-10.86 36.98,-14.25 39.20,-16.70 41.42,-19.14 43.01,-20.98 44.61,-22.83 45.88,-24.35 47.15,-25.87 48.07,-27.15 48.99,-28.43 49.68,-29.51 50.37,-30.59 51.33,-31.92 52.29,-33.25 52.92,-34.15 53.56,-35.04 54.11,-36.01 54.65,-36.97 55.56,-38.09 56.46,-39.21 56.66,-39.52 56.87,-39.84 57.16,-40.07 57.45,-40.31 57.80,-40.43 58.16,-40.56 58.53,-40.57 58.90,-40.58 59.26,-40.47 59.62,-40.36 59.92,-40.14 60.22,-39.92 60.44,-39.61 60.66,-39.31 60.77,-38.95 60.88,-38.59 60.86,-38.22 60.85,-37.84 60.72,-37.49 60.59,-37.14 60.36,-36.85 60.12,-36.56 59.80,-36.36 59.49,-36.16 59.12,-36.07 58.76,-35.98 58.39,-36.01 58.02,-36.05 57.67,-36.20 57.33,-36.34 57.05,-36.60 56.77,-36.85 56.59,-37.17 56.41,-37.50 56.34,-37.87 56.27,-38.24 56.32,-38.61 56.37,-38.98 56.54,-39.31 56.71,-39.65 56.98,-39.91 57.24,-40.17 57.58,-40.34 57.91,-40.50 58.28,-40.55 58.65,-40.60 59.02,-40.53 59.39,-40.46 59.71,-40.27 60.04,-40.09 60.29,-39.81 60.54,-39.53 60.68,-39.18 60.83,-38.84 60.86,-38.46 60.89,-38.09 60.79,-37.73 60.70,-37.37 60.70,-37.37 60.70,-37.37 59.20,-35.42 57.69,-33.47 56.46,-32.24 55.24,-31.01 54.21,-29.73 53.19,-28.45 52.31,-27.46 51.44,-26.46 50.35,-25.25 49.26,-24.04 47.95,-22.56 46.63,-21.08 45.02,-19.21 43.41,-17.34 41.19,-14.86 38.96,-12.39 35.76,-8.98 32.56,-5.57 30.17,-3.04 27.77,-0.51 25.25,2.05 22.74,4.63 19.77,7.71 16.80,10.79 13.42,14.16 10.04,17.54 5.85,22.03 1.66,26.52 -0.83,29.33 -3.33,32.14 -5.78,34.88 -8.23,37.62 -10.95,40.67 -13.67,43.72 -16.55,47.01 -19.44,50.31 -22.78,54.18 -26.13,58.05 -30.53,62.82 -34.93,67.59 -36.31,68.88 -37.68,70.18 -37.88,70.55 -38.09,70.91 -38.37,71.22 -38.66,71.53 -39.01,71.77 -39.36,72.00 -39.75,72.14 -40.15,72.28 -40.57,72.32 -40.99,72.37 -41.40,72.31 -41.82,72.25 -42.21,72.09 -42.60,71.93 -42.94,71.69 -43.28,71.44 -43.56,71.12 -43.83,70.80 -44.02,70.43 -44.21,70.05 -44.30,69.64 -44.39,69.23 -44.38,68.81 -44.37,68.39 -44.27,67.98 -44.16,67.57 -43.88,67.13 -43.61,66.68 -43.08,65.59 -42.55,64.50 -41.90,63.35 -41.25,62.20 -40.68,61.29 -40.10,60.38 -39.32,59.02 -38.54,57.66 -37.79,56.29 -37.04,54.93 -36.22,53.36 -35.39,51.79 -34.86,50.65 -34.34,49.51 -33.57,48.04 -32.81,46.57 -31.92,45.06 -31.04,43.54 -30.07,41.76 -29.10,39.97 -28.29,38.68 -27.48,37.39 -26.66,35.85 -25.84,34.31 -25.07,32.77 -24.30,31.23 -23.61,29.86 -22.93,28.48 -22.28,27.17 -21.63,25.85 -21.13,24.86 -20.64,23.87 -20.00,22.79 -19.37,21.72 -18.90,20.72 -18.42,19.72 -17.70,18.48 -16.99,17.25 -16.37,16.02 -15.76,14.80 -15.06,13.87 -14.36,12.93 -13.77,11.77 -13.19,10.61 -12.45,9.70 -11.70,8.79 -10.95,7.93 -10.19,7.07 -9.40,6.31 -8.61,5.55 -7.86,4.69 -7.11,3.84 -6.12,2.73 -5.13,1.62 -4.37,0.83 -3.61,0.04 -2.74,-0.86 -1.86,-1.76 -1.63,-1.96 -1.39,-2.16 -1.11,-2.29 -0.83,-2.43 -0.53,-2.49 -0.22,-2.56 0.08,-2.55 0.39,-2.54 0.68,-2.45 0.98,-2.37 1.25,-2.22 1.52,-2.06 1.75,-1.85 1.97,-1.64 2.14,-1.38 2.31,-1.12 2.41,-0.82 2.51,-0.53 2.54,-0.22 2.57,0.08 2.52,0.38 2.47,0.69 2.35,0.98 2.23,1.26 2.05,1.51 1.86,1.76 1.86,1.76 L 1.86,1.76 Z"></path></g><g transform="translate(181.10134199216827 124.91037443286592) rotate(0 -20.382116087887198 21.793868184057942)" stroke="none"><path fill="#ffffff" d="M 2.11,1.37 Q 2.11,1.37 0.66,3.31 -0.78,5.26 -1.72,6.57 -2.67,7.89 -3.31,8.90 -3.95,9.90 -4.92,11.38 -5.88,12.86 -6.86,14.35 -7.84,15.84 -8.62,16.99 -9.40,18.13 -10.10,19.25 -10.80,20.37 -11.75,21.71 -12.70,23.05 -13.33,23.90 -13.97,24.75 -15.03,26.12 -16.09,27.48 -17.32,29.08 -18.55,30.68 -19.65,32.07 -20.74,33.47 -21.58,34.45 -22.41,35.43 -23.08,36.30 -23.75,37.17 -24.73,38.22 -25.72,39.27 -27.23,39.59 -28.75,39.92 -30.20,38.70 -31.65,37.48 -31.53,36.39 -31.41,35.30 -30.13,33.23 -28.84,31.16 -27.82,29.70 -26.80,28.24 -25.54,26.64 -24.27,25.05 -23.11,23.49 -21.94,21.94 -20.78,20.52 -19.63,19.11 -18.06,17.30 -16.49,15.48 -15.39,14.15 -14.29,12.81 -13.53,11.77 -12.77,10.73 -11.83,9.24 -10.89,7.74 -9.96,6.49 -9.03,5.25 -8.90,4.99 -8.77,4.73 -8.53,4.50 -8.29,4.27 -8.00,4.11 -7.71,3.95 -7.39,3.86 -7.07,3.77 -6.74,3.76 -6.41,3.75 -6.08,3.82 -5.76,3.89 -5.46,4.03 -5.16,4.18 -4.91,4.39 -4.65,4.60 -4.45,4.87 -4.26,5.14 -4.13,5.45 -4.00,5.75 -3.95,6.08 -3.90,6.41 -3.93,6.74 -3.96,7.07 -4.07,7.38 -4.18,7.70 -4.36,7.98 -4.54,8.26 -5.07,9.19 -5.60,10.13 -6.86,11.80 -8.11,13.47 -9.72,15.31 -11.34,17.14 -12.47,18.60 -13.60,20.06 -14.66,21.43 -15.72,22.81 -16.48,23.90 -17.23,24.99 -17.88,25.98 -18.53,26.96 -19.23,27.94 -19.92,28.91 -20.69,30.02 -21.47,31.13 -22.39,32.59 -23.32,34.06 -24.09,35.39 -24.85,36.72 -25.32,37.69 -25.78,38.65 -26.43,40.15 -27.08,41.66 -27.52,42.73 -27.96,43.79 -28.60,44.54 -29.24,45.29 -29.61,45.46 -29.98,45.63 -30.38,45.70 -30.78,45.78 -31.18,45.76 -31.59,45.74 -31.97,45.62 -32.36,45.51 -32.71,45.30 -33.06,45.10 -33.35,44.81 -33.64,44.53 -33.86,44.18 -34.07,43.84 -34.19,43.45 -34.32,43.07 -34.35,42.66 -34.38,42.26 -34.31,41.86 -34.24,41.46 -34.08,41.09 -33.91,40.71 -33.67,40.39 -33.42,40.07 -33.10,39.82 -32.79,39.56 -33.58,41.17 -34.36,42.78 -34.20,41.19 -34.04,39.61 -33.65,38.40 -33.26,37.20 -32.91,35.67 -32.56,34.14 -32.66,34.28 -32.75,34.42 -32.60,34.02 -32.45,33.62 -32.21,33.27 -31.97,32.92 -31.65,32.63 -31.34,32.35 -30.96,32.15 -30.58,31.95 -30.17,31.84 -29.75,31.74 -29.33,31.73 -28.90,31.73 -28.48,31.83 -28.07,31.93 -27.69,32.13 -27.31,32.32 -26.99,32.60 -26.67,32.88 -26.42,33.23 -26.18,33.58 -26.02,33.98 -25.87,34.38 -25.81,34.81 -25.76,35.23 -25.81,35.65 -25.86,36.08 -26.93,37.20 -28.01,38.32 -28.68,39.49 -29.35,40.66 -30.64,42.01 -31.93,43.35 -32.87,44.50 -33.81,45.65 -34.93,46.88 -36.06,48.10 -36.99,49.09 -37.93,50.08 -39.89,50.54 -41.85,50.99 -43.18,49.86 -44.52,48.74 -44.60,47.22 -44.67,45.71 -44.45,44.30 -44.23,42.89 -43.79,41.50 -43.35,40.10 -42.45,38.41 -41.55,36.72 -40.90,35.42 -40.24,34.11 -39.64,33.03 -39.03,31.95 -38.41,31.00 -37.80,30.05 -36.72,28.92 -35.65,27.80 -35.92,30.19 -36.20,32.58 -35.28,33.32 -34.37,34.07 -34.93,35.32 -35.49,36.56 -36.29,37.30 -37.10,38.04 -37.97,38.98 -38.84,39.91 -39.56,40.73 -40.28,41.56 -40.59,41.98 -40.91,42.40 -41.25,42.67 -41.58,42.95 -41.97,43.14 -42.36,43.33 -42.79,43.42 -43.21,43.51 -43.65,43.49 -44.08,43.48 -44.50,43.36 -44.92,43.24 -45.30,43.02 -45.67,42.81 -45.99,42.51 -46.30,42.21 -46.54,41.85 -46.77,41.48 -46.91,41.07 -47.05,40.66 -47.09,40.22 -47.12,39.79 -47.06,39.36 -46.99,38.93 -46.82,38.53 -46.65,38.13 -46.40,37.79 -46.14,37.44 -46.18,39.59 -46.22,41.75 -46.66,40.59 -47.10,39.42 -46.74,38.31 -46.38,37.19 -45.80,35.96 -45.22,34.73 -44.55,33.56 -43.87,32.40 -43.16,31.18 -42.45,29.96 -42.14,29.41 -41.84,28.86 -41.56,28.52 -41.28,28.18 -40.93,27.91 -40.57,27.65 -40.16,27.48 -39.76,27.31 -39.32,27.24 -38.88,27.17 -38.44,27.21 -38.00,27.24 -37.58,27.39 -37.17,27.53 -36.79,27.77 -36.42,28.00 -36.12,28.32 -35.81,28.64 -35.59,29.03 -35.37,29.41 -35.25,29.84 -35.13,30.26 -35.12,30.70 -35.10,31.15 -35.19,31.58 -35.28,32.01 -35.47,32.41 -35.66,32.81 -36.14,33.78 -36.62,34.75 -38.79,35.07 -40.95,35.38 -41.87,34.29 -42.78,33.20 -42.81,31.84 -42.85,30.49 -42.28,29.42 -41.72,28.36 -40.72,26.96 -39.72,25.57 -38.62,24.14 -37.52,22.71 -36.65,21.81 -35.78,20.90 -34.66,19.79 -33.53,18.68 -32.54,17.75 -31.56,16.82 -30.57,16.02 -29.57,15.22 -28.50,14.25 -27.42,13.28 -25.29,14.14 -23.16,15.00 -22.74,16.47 -22.33,17.94 -22.88,19.08 -23.44,20.23 -25.19,22.73 -26.93,25.22 -28.11,26.82 -29.30,28.41 -29.96,29.43 -30.62,30.44 -31.38,31.71 -32.14,32.99 -32.20,33.32 -32.26,33.65 -32.43,33.98 -32.61,34.30 -32.86,34.57 -33.11,34.84 -33.41,35.05 -33.72,35.25 -34.07,35.38 -34.41,35.50 -34.78,35.54 -35.15,35.58 -35.51,35.53 -35.88,35.48 -36.22,35.34 -36.56,35.20 -36.86,34.99 -37.16,34.78 -37.40,34.50 -37.64,34.22 -37.80,33.89 -37.97,33.56 -38.05,33.20 -38.13,32.84 -38.13,32.47 -38.12,32.10 -38.03,31.75 -37.93,31.39 -37.30,30.37 -36.67,29.36 -35.13,27.70 -33.59,26.04 -32.75,25.08 -31.91,24.12 -31.07,23.17 -30.23,22.22 -29.39,21.33 -28.54,20.43 -27.08,18.86 -25.61,17.28 -24.59,16.19 -23.58,15.09 -22.70,14.19 -21.82,13.29 -20.90,12.29 -19.98,11.29 -20.15,11.32 -20.32,11.35 -19.99,11.14 -19.65,10.92 -19.28,10.80 -18.91,10.67 -18.51,10.63 -18.12,10.60 -17.73,10.66 -17.34,10.72 -16.97,10.87 -16.61,11.02 -16.29,11.25 -15.97,11.49 -15.72,11.79 -15.46,12.10 -15.29,12.45 -15.12,12.81 -15.04,13.20 -14.95,13.58 -14.97,13.98 -14.98,14.37 -15.08,14.75 -15.19,15.13 -15.39,15.48 -15.58,15.82 -15.85,16.11 -16.12,16.40 -15.57,15.27 -15.02,14.14 -15.48,15.47 -15.94,16.80 -17.03,18.41 -18.11,20.01 -18.79,20.95 -19.47,21.89 -20.13,22.81 -20.79,23.73 -21.55,24.76 -22.31,25.79 -23.12,27.12 -23.93,28.46 -26.02,29.48 -28.12,30.51 -29.33,29.26 -30.54,28.02 -29.99,26.10 -29.44,24.17 -28.36,22.31 -27.28,20.44 -26.58,19.38 -25.88,18.33 -25.10,17.20 -24.33,16.08 -23.25,14.55 -22.18,13.03 -21.36,11.82 -20.53,10.61 -19.58,9.04 -18.63,7.47 -18.03,6.37 -17.43,5.27 -16.88,4.28 -16.33,3.30 -15.77,2.38 -15.21,1.47 -14.65,0.53 -14.09,-0.39 -13.45,-1.49 -12.81,-2.59 -10.06,-3.66 -7.30,-4.73 -6.37,-3.72 -5.44,-2.71 -5.54,-1.47 -5.65,-0.24 -6.07,1.03 -6.49,2.30 -7.00,3.41 -7.50,4.51 -8.48,6.29 -9.45,8.07 -10.22,9.41 -10.99,10.76 -11.61,11.86 -12.23,12.97 -12.81,13.94 -13.39,14.91 -14.31,16.47 -15.22,18.03 -16.48,18.11 -17.75,18.18 -19.12,16.21 -20.50,14.25 -20.09,13.06 -19.67,11.88 -18.56,10.09 -17.44,8.31 -16.63,7.16 -15.83,6.01 -15.15,4.99 -14.48,3.97 -13.42,2.54 -12.36,1.11 -11.73,0.18 -11.10,-0.73 -10.25,-1.92 -9.39,-3.11 -8.74,-4.10 -8.10,-5.10 -7.00,-6.24 -5.90,-7.39 -3.75,-6.67 -1.61,-5.96 -1.26,-4.46 -0.91,-2.97 -1.65,-1.23 -2.39,0.50 -3.04,1.82 -3.69,3.15 -4.19,4.38 -4.69,5.60 -5.17,6.67 -5.65,7.74 -6.34,9.05 -7.03,10.37 -7.22,11.04 -7.40,11.70 -7.64,12.05 -7.88,12.41 -8.20,12.69 -8.52,12.98 -8.89,13.18 -9.27,13.38 -9.68,13.48 -10.09,13.59 -10.52,13.59 -10.94,13.60 -11.36,13.50 -11.77,13.40 -12.15,13.21 -12.53,13.01 -12.85,12.73 -13.17,12.45 -13.42,12.10 -13.66,11.75 -13.82,11.36 -13.97,10.96 -14.03,10.54 -14.08,10.11 -14.03,9.69 -13.99,9.27 -13.84,8.87 -13.69,8.47 -13.46,10.26 -13.23,12.05 -13.65,11.07 -14.07,10.08 -13.68,8.78 -13.29,7.48 -12.40,6.14 -11.51,4.81 -10.69,3.70 -9.87,2.59 -8.91,1.52 -7.94,0.45 -7.13,-0.47 -6.33,-1.40 -5.30,-2.12 -4.28,-2.85 -3.07,-2.62 -1.85,-2.40 -0.90,-1.89 0.04,-1.37 0.33,0.34 0.62,2.06 0.03,3.57 -0.54,5.08 -1.38,6.99 -2.22,8.89 -2.84,10.27 -3.47,11.64 -3.87,12.71 -4.27,13.78 -5.15,15.40 -6.04,17.03 -5.59,16.34 -5.13,15.66 -5.26,16.07 -5.38,16.48 -5.60,16.85 -5.82,17.21 -6.12,17.52 -6.42,17.82 -6.79,18.05 -7.15,18.27 -7.56,18.40 -7.97,18.53 -8.40,18.56 -8.82,18.59 -9.25,18.51 -9.67,18.44 -10.06,18.27 -10.45,18.09 -10.79,17.83 -11.13,17.57 -11.39,17.23 -11.66,16.90 -11.84,16.51 -12.02,16.12 -12.10,15.70 -12.18,15.28 -12.15,14.85 -12.13,14.42 -11.29,13.05 -10.45,11.68 -9.78,10.85 -9.11,10.01 -8.38,9.17 -7.65,8.32 -6.88,7.55 -6.12,6.77 -5.26,5.98 -4.40,5.19 -3.51,4.28 -2.61,3.36 -1.87,2.51 -1.13,1.66 0.61,1.37 2.36,1.09 3.69,2.82 5.02,4.56 4.72,5.70 4.42,6.84 3.86,7.74 3.30,8.65 2.44,9.76 1.58,10.87 0.70,11.93 -0.18,12.98 -1.05,14.04 -1.92,15.09 -3.10,15.25 -4.29,15.40 -5.61,14.84 -6.92,14.29 -7.52,13.40 -8.12,12.51 -8.08,11.33 -8.04,10.15 -7.62,9.06 -7.21,7.97 -6.82,6.87 -6.43,5.76 -6.06,4.68 -5.70,3.60 -5.18,2.55 -4.67,1.50 -4.12,0.27 -3.58,-0.96 -3.38,-1.24 -3.18,-1.53 -2.88,-1.87 -2.58,-2.20 -2.21,-2.46 -1.84,-2.71 -1.42,-2.87 -1.00,-3.03 -0.55,-3.08 -0.10,-3.14 0.33,-3.08 0.78,-3.03 1.20,-2.87 1.62,-2.71 1.99,-2.45 2.36,-2.19 2.66,-1.86 2.95,-1.52 3.16,-1.12 3.37,-0.72 3.48,-0.29 3.58,0.14 3.58,0.59 3.58,1.04 3.47,1.48 3.36,1.91 3.16,2.31 2.95,2.71 3.19,1.27 3.44,-0.15 3.46,0.92 3.48,2.00 2.71,3.41 1.93,4.82 1.13,5.95 0.33,7.08 -0.32,8.23 -0.98,9.38 -1.61,10.28 -2.24,11.18 -2.35,11.35 -2.46,11.52 -2.82,11.79 -3.17,12.06 -3.58,12.24 -3.99,12.41 -4.43,12.49 -4.88,12.56 -5.32,12.53 -5.77,12.50 -6.19,12.36 -6.62,12.22 -7.00,11.99 -7.38,11.75 -7.69,11.43 -8.00,11.11 -8.23,10.73 -8.45,10.34 -8.58,9.91 -8.71,9.48 -8.73,9.04 -8.75,8.59 -8.66,8.15 -8.58,7.71 -8.39,7.31 -8.20,6.90 -7.92,6.56 -7.64,6.21 -7.93,7.35 -8.22,8.50 -7.75,6.75 -7.28,5.01 -6.21,3.06 -5.13,1.10 -4.45,0.08 -3.77,-0.94 -1.59,-3.78 0.58,-6.61 1.05,-6.90 1.51,-7.19 2.05,-7.32 2.58,-7.44 3.13,-7.39 3.68,-7.34 4.18,-7.12 4.68,-6.89 5.09,-6.52 5.49,-6.15 5.76,-5.67 6.02,-5.19 6.12,-4.65 6.22,-4.10 6.14,-3.56 6.05,-3.02 5.80,-2.53 5.55,-2.04 5.16,-1.65 4.77,-1.27 4.27,-1.03 3.78,-0.79 3.23,-0.73 2.68,-0.66 2.15,-0.77 1.61,-0.88 1.13,-1.15 0.66,-1.43 0.29,-1.84 -0.06,-2.26 -0.27,-2.77 -0.48,-3.27 -0.52,-3.82 -0.56,-4.37 -0.42,-4.90 -0.28,-5.43 0.02,-5.89 0.32,-6.35 0.75,-6.69 1.18,-7.03 1.70,-7.22 2.22,-7.40 2.77,-7.41 3.32,-7.42 3.84,-7.25 4.37,-7.08 4.81,-6.75 5.25,-6.43 5.57,-5.98 5.88,-5.53 6.04,-5.00 6.19,-4.47 6.17,-3.92 6.15,-3.37 5.95,-2.86 5.76,-2.34 5.41,-1.92 5.06,-1.50 5.06,-1.50 5.06,-1.50 4.04,-0.16 3.03,1.17 2.03,2.78 1.03,4.40 0.57,5.36 0.10,6.33 -0.92,7.75 -1.95,9.18 -2.21,10.35 -2.46,11.52 -2.82,11.79 -3.17,12.06 -3.58,12.24 -3.99,12.41 -4.43,12.49 -4.88,12.56 -5.32,12.53 -5.77,12.50 -6.19,12.36 -6.62,12.22 -7.00,11.99 -7.38,11.75 -7.69,11.43 -8.00,11.11 -8.23,10.73 -8.45,10.34 -8.58,9.91 -8.71,9.48 -8.73,9.04 -8.75,8.59 -8.66,8.15 -8.58,7.71 -8.39,7.31 -8.20,6.90 -7.92,6.56 -7.64,6.21 -7.20,5.54 -6.76,4.87 -6.19,3.81 -5.61,2.74 -4.57,2.21 -3.54,1.67 -3.36,0.06 -3.18,-1.53 -2.88,-1.87 -2.58,-2.20 -2.21,-2.46 -1.84,-2.71 -1.42,-2.87 -1.00,-3.03 -0.55,-3.08 -0.11,-3.14 0.33,-3.08 0.78,-3.03 1.20,-2.87 1.62,-2.71 1.99,-2.45 2.36,-2.19 2.65,-1.86 2.95,-1.52 3.16,-1.12 3.37,-0.72 3.48,-0.29 3.58,0.14 3.58,0.59 3.58,1.04 3.47,1.48 3.36,1.91 3.16,2.31 2.95,2.71 2.66,3.23 2.37,3.75 1.82,4.91 1.27,6.06 0.87,7.31 0.47,8.56 -0.65,9.33 -1.79,10.10 -3.03,9.58 -4.27,9.06 -5.64,9.55 -7.01,10.05 -6.45,9.11 -5.89,8.17 -5.11,7.22 -4.33,6.26 -3.10,5.17 -1.88,4.07 -1.47,5.40 -1.06,6.73 0.53,7.32 2.13,7.92 3.29,6.98 4.45,6.05 3.72,6.89 3.00,7.73 2.20,8.52 1.41,9.32 0.68,10.18 -0.04,11.03 -0.90,11.82 -1.76,12.61 -2.61,13.59 -3.45,14.57 -4.29,15.38 -5.14,16.19 -5.89,16.94 -6.63,17.70 -5.88,16.68 -5.13,15.66 -5.26,16.07 -5.38,16.48 -5.60,16.85 -5.82,17.21 -6.12,17.52 -6.42,17.82 -6.79,18.05 -7.15,18.27 -7.56,18.40 -7.97,18.53 -8.40,18.56 -8.82,18.59 -9.24,18.51 -9.67,18.44 -10.06,18.27 -10.45,18.09 -10.79,17.83 -11.13,17.57 -11.39,17.24 -11.66,16.90 -11.84,16.51 -12.02,16.12 -12.10,15.70 -12.18,15.28 -12.15,14.85 -12.13,14.42 -11.77,13.66 -11.41,12.90 -10.91,11.68 -10.41,10.45 -9.84,9.02 -9.27,7.58 -8.58,6.00 -7.89,4.42 -7.17,2.85 -6.44,1.27 -5.24,2.39 -4.04,3.50 -2.98,3.91 -1.91,4.32 -2.70,5.14 -3.50,5.95 -4.36,7.11 -5.22,8.27 -6.20,9.64 -7.19,11.01 -7.54,9.55 -7.90,8.08 -7.65,9.89 -7.40,11.70 -7.64,12.05 -7.88,12.41 -8.20,12.69 -8.51,12.98 -8.89,13.18 -9.27,13.38 -9.68,13.48 -10.09,13.59 -10.52,13.59 -10.94,13.60 -11.36,13.50 -11.77,13.40 -12.15,13.21 -12.53,13.01 -12.85,12.73 -13.17,12.45 -13.42,12.10 -13.66,11.75 -13.82,11.36 -13.97,10.96 -14.03,10.54 -14.08,10.12 -14.03,9.69 -13.99,9.27 -13.84,8.87 -13.69,8.47 -13.67,8.33 -13.65,8.19 -13.06,7.16 -12.48,6.12 -11.95,5.12 -11.43,4.11 -10.89,3.00 -10.36,1.89 -9.68,0.31 -9.01,-1.26 -7.87,-2.21 -6.74,-3.16 -4.47,-2.60 -2.20,-2.04 -3.01,-1.18 -3.83,-0.32 -4.56,0.63 -5.29,1.59 -6.32,2.94 -7.35,4.30 -8.17,5.81 -8.99,7.32 -9.63,8.46 -10.27,9.60 -10.89,10.66 -11.51,11.72 -12.08,12.81 -12.65,13.89 -13.49,15.02 -14.33,16.15 -15.63,14.23 -16.94,12.30 -18.39,12.44 -19.84,12.58 -19.06,11.14 -18.27,9.71 -17.57,8.46 -16.86,7.21 -16.14,5.94 -15.42,4.66 -14.69,3.23 -13.97,1.80 -13.10,0.22 -12.23,-1.35 -11.39,-0.53 -10.55,0.28 -8.56,0.30 -6.58,0.32 -7.29,1.26 -8.01,2.20 -8.90,3.54 -9.80,4.87 -10.51,5.83 -11.21,6.79 -12.17,8.07 -13.12,9.35 -13.96,10.55 -14.79,11.74 -15.38,12.68 -15.96,13.63 -16.67,14.74 -17.38,15.85 -18.24,17.63 -19.11,19.40 -19.79,20.56 -20.47,21.72 -21.05,22.70 -21.63,23.67 -22.14,24.62 -22.65,25.56 -23.39,26.38 -24.12,27.19 -25.25,26.09 -26.39,24.99 -28.27,25.68 -30.15,26.36 -29.53,25.43 -28.90,24.50 -28.16,23.38 -27.41,22.26 -26.71,21.19 -26.01,20.12 -25.39,19.19 -24.78,18.26 -24.12,17.24 -23.46,16.22 -22.41,15.15 -21.37,14.08 -20.84,12.72 -20.32,11.35 -19.99,11.14 -19.65,10.92 -19.28,10.80 -18.91,10.67 -18.51,10.63 -18.12,10.60 -17.73,10.66 -17.34,10.72 -16.97,10.87 -16.61,11.02 -16.29,11.25 -15.97,11.49 -15.72,11.79 -15.46,12.10 -15.29,12.45 -15.12,12.81 -15.04,13.20 -14.95,13.58 -14.97,13.98 -14.98,14.37 -15.08,14.75 -15.19,15.13 -15.39,15.48 -15.58,15.82 -15.85,16.11 -16.12,16.40 -16.57,16.84 -17.02,17.29 -18.15,18.31 -19.29,19.32 -20.34,20.33 -21.40,21.35 -22.84,22.89 -24.28,24.43 -25.04,25.25 -25.80,26.06 -26.58,26.98 -27.36,27.90 -28.18,28.94 -29.01,29.98 -30.63,31.82 -32.26,33.65 -32.43,33.98 -32.61,34.30 -32.86,34.57 -33.11,34.84 -33.41,35.05 -33.72,35.25 -34.07,35.38 -34.41,35.50 -34.78,35.54 -35.15,35.58 -35.51,35.53 -35.88,35.48 -36.22,35.34 -36.56,35.20 -36.86,34.99 -37.16,34.78 -37.40,34.50 -37.64,34.22 -37.80,33.89 -37.97,33.56 -38.05,33.20 -38.13,32.84 -38.13,32.47 -38.12,32.10 -38.03,31.75 -37.93,31.39 -37.92,31.32 -37.90,31.25 -37.23,30.23 -36.56,29.21 -35.89,28.30 -35.23,27.38 -34.60,26.46 -33.98,25.53 -33.08,23.75 -32.19,21.97 -30.39,20.08 -28.59,18.20 -26.35,18.76 -24.12,19.32 -24.93,20.24 -25.74,21.17 -26.60,21.84 -27.46,22.52 -28.50,23.48 -29.55,24.45 -30.70,25.74 -31.85,27.04 -32.72,28.24 -33.59,29.45 -35.06,30.65 -36.52,31.84 -37.37,30.82 -38.22,29.80 -40.43,30.61 -42.65,31.42 -42.24,30.14 -41.84,28.86 -41.56,28.52 -41.28,28.18 -40.93,27.91 -40.57,27.65 -40.16,27.48 -39.76,27.31 -39.32,27.24 -38.88,27.17 -38.44,27.21 -38.00,27.24 -37.58,27.39 -37.17,27.53 -36.79,27.77 -36.42,28.00 -36.12,28.32 -35.81,28.64 -35.59,29.03 -35.37,29.41 -35.25,29.84 -35.13,30.26 -35.12,30.70 -35.10,31.15 -35.19,31.58 -35.28,32.01 -35.47,32.41 -35.66,32.81 -35.57,32.40 -35.47,31.99 -35.93,32.97 -36.39,33.94 -37.32,35.44 -38.25,36.94 -38.74,37.90 -39.22,38.85 -39.74,39.96 -40.26,41.07 -40.58,39.55 -40.90,38.04 -40.91,40.22 -40.91,42.40 -41.25,42.67 -41.58,42.95 -41.97,43.14 -42.36,43.33 -42.79,43.42 -43.21,43.51 -43.65,43.49 -44.08,43.48 -44.50,43.36 -44.92,43.24 -45.29,43.02 -45.67,42.81 -45.99,42.51 -46.30,42.21 -46.54,41.85 -46.77,41.48 -46.91,41.07 -47.05,40.66 -47.09,40.23 -47.12,39.79 -47.06,39.36 -46.99,38.93 -46.82,38.53 -46.65,38.13 -46.40,37.79 -46.14,37.44 -45.96,37.23 -45.79,37.02 -44.86,36.03 -43.94,35.04 -43.01,34.04 -42.08,33.03 -40.83,31.75 -39.59,30.46 -38.41,29.46 -37.23,28.47 -35.39,27.74 -33.55,27.02 -32.43,27.84 -31.31,28.67 -31.22,30.64 -31.12,32.62 -31.68,33.56 -32.25,34.50 -32.90,35.41 -33.55,36.32 -34.11,37.37 -34.66,38.42 -35.46,40.11 -36.25,41.79 -36.73,42.95 -37.21,44.11 -37.43,45.60 -37.66,47.09 -38.88,46.17 -40.11,45.26 -41.67,45.49 -43.24,45.72 -42.13,44.54 -41.02,43.37 -40.13,42.41 -39.25,41.46 -38.21,40.16 -37.17,38.85 -35.98,37.50 -34.78,36.16 -33.89,35.04 -33.00,33.92 -31.89,33.07 -30.78,32.23 -31.77,33.33 -32.75,34.43 -32.60,34.02 -32.45,33.62 -32.21,33.27 -31.97,32.92 -31.65,32.63 -31.34,32.35 -30.96,32.15 -30.58,31.95 -30.17,31.84 -29.75,31.74 -29.33,31.73 -28.90,31.73 -28.48,31.83 -28.07,31.93 -27.69,32.13 -27.31,32.32 -26.99,32.60 -26.67,32.88 -26.42,33.23 -26.18,33.58 -26.02,33.98 -25.87,34.38 -25.81,34.80 -25.76,35.23 -25.81,35.65 -25.86,36.08 -25.93,36.19 -26.00,36.29 -26.28,37.41 -26.55,38.53 -27.13,40.16 -27.71,41.78 -28.48,43.53 -29.24,45.29 -29.61,45.46 -29.98,45.63 -30.38,45.70 -30.78,45.78 -31.18,45.76 -31.59,45.74 -31.97,45.62 -32.36,45.51 -32.71,45.30 -33.06,45.10 -33.35,44.81 -33.64,44.53 -33.85,44.18 -34.07,43.84 -34.19,43.45 -34.32,43.07 -34.35,42.66 -34.38,42.26 -34.31,41.86 -34.24,41.46 -34.08,41.09 -33.91,40.72 -33.67,40.39 -33.42,40.07 -33.10,39.82 -32.79,39.56 -33.13,39.84 -33.47,40.12 -32.82,38.88 -32.18,37.65 -31.55,36.44 -30.93,35.24 -30.20,34.20 -29.47,33.16 -28.54,32.03 -27.62,30.89 -26.59,29.58 -25.56,28.27 -24.72,27.08 -23.89,25.89 -23.18,25.03 -22.48,24.16 -21.75,23.21 -21.02,22.25 -20.20,21.17 -19.38,20.08 -18.41,18.73 -17.44,17.37 -16.42,15.74 -15.39,14.12 -14.09,12.03 -12.78,9.94 -11.55,8.37 -10.33,6.79 -9.55,5.76 -8.77,4.73 -8.53,4.50 -8.29,4.27 -8.00,4.11 -7.71,3.95 -7.39,3.86 -7.07,3.77 -6.74,3.76 -6.41,3.75 -6.08,3.82 -5.76,3.89 -5.46,4.03 -5.16,4.18 -4.91,4.39 -4.65,4.60 -4.45,4.87 -4.26,5.14 -4.13,5.45 -4.00,5.75 -3.95,6.08 -3.90,6.41 -3.93,6.74 -3.96,7.07 -4.07,7.38 -4.18,7.70 -4.36,7.98 -4.54,8.26 -4.67,8.35 -4.80,8.44 -5.58,9.21 -6.35,9.99 -7.19,10.86 -8.02,11.74 -8.71,12.59 -9.40,13.43 -10.26,14.42 -11.13,15.42 -12.19,16.71 -13.25,17.99 -14.62,19.98 -15.98,21.96 -16.96,23.26 -17.93,24.56 -18.91,26.30 -19.89,28.04 -20.82,29.65 -21.74,31.27 -22.53,32.82 -23.32,34.38 -24.22,35.41 -25.12,36.45 -26.47,35.39 -27.82,34.34 -29.04,34.46 -30.27,34.59 -29.50,33.82 -28.73,33.06 -27.97,32.18 -27.21,31.30 -26.32,30.35 -25.42,29.41 -24.36,28.14 -23.31,26.86 -22.62,25.98 -21.94,25.09 -20.87,23.74 -19.80,22.38 -18.69,20.97 -17.59,19.56 -16.56,18.20 -15.52,16.84 -14.71,15.78 -13.91,14.72 -13.03,13.69 -12.16,12.67 -11.07,11.27 -9.97,9.87 -8.86,8.56 -7.75,7.26 -7.01,6.28 -6.26,5.29 -5.37,4.07 -4.48,2.85 -3.29,0.74 -2.11,-1.37 -1.91,-1.60 -1.72,-1.83 -1.47,-2.01 -1.23,-2.19 -0.95,-2.31 -0.66,-2.42 -0.36,-2.47 -0.06,-2.51 0.23,-2.48 0.53,-2.45 0.82,-2.36 1.10,-2.26 1.36,-2.09 1.61,-1.92 1.82,-1.70 2.03,-1.48 2.17,-1.22 2.32,-0.95 2.40,-0.66 2.48,-0.37 2.49,-0.06 2.50,0.23 2.44,0.53 2.37,0.82 2.24,1.09 2.11,1.37 2.11,1.37 L 2.11,1.37 Z"></path></g><g transform="translate(318.05909102502517 209.29304883531444) rotate(0 0.00004999999998744897 0.00004999999998744897)" stroke="none"><path fill="#ffffff" d="M 1.57,-1.57 Q 1.57,-1.57 1.77,-1.27 1.98,-0.98 2.09,-0.64 2.20,-0.29 2.19,0.05 2.18,0.41 2.05,0.75 1.93,1.09 1.70,1.37 1.48,1.65 1.18,1.84 0.87,2.04 0.52,2.12 0.18,2.21 -0.17,2.18 -0.53,2.15 -0.86,2.01 -1.19,1.87 -1.46,1.63 -1.73,1.39 -1.90,1.07 -2.08,0.76 -2.15,0.41 -2.21,0.05 -2.17,-0.29 -2.12,-0.65 -1.96,-0.97 -1.80,-1.29 -1.54,-1.54 -1.29,-1.80 -0.97,-1.96 -0.65,-2.12 -0.29,-2.17 0.06,-2.21 0.41,-2.15 0.76,-2.08 1.07,-1.90 1.39,-1.73 1.63,-1.46 1.87,-1.19 2.01,-0.86 2.15,-0.53 2.18,-0.17 2.21,0.18 2.12,0.52 2.03,0.87 1.84,1.18 1.65,1.48 1.37,1.70 1.09,1.93 0.75,2.05 0.41,2.18 0.05,2.19 -0.30,2.20 -0.64,2.09 -0.98,1.98 -1.27,1.77 -1.57,1.56 -1.57,1.57 -1.57,1.57 -1.73,1.35 -1.90,1.14 -2.01,0.90 -2.12,0.66 -2.16,0.39 -2.21,0.13 -2.20,-0.13 -2.18,-0.40 -2.10,-0.65 -2.02,-0.91 -1.88,-1.14 -1.74,-1.36 -1.55,-1.55 -1.36,-1.74 -1.14,-1.88 -0.91,-2.02 -0.65,-2.10 -0.40,-2.18 -0.13,-2.20 0.13,-2.21 0.39,-2.16 0.66,-2.12 0.90,-2.01 1.14,-1.90 1.35,-1.73 1.57,-1.57 1.57,-1.57 L 1.57,-1.57 Z"></path></g></svg>